/* XPM */
static char *_9c5690ac39d4b6ae932b7c41ec912b9b9NCrZ997aWS58We[] = {
/* columns rows colors chars-per-pixel */
"32 32 207 2 ",
"   c None",
".  c #08001F",
"X  c #10001F",
"o  c #3F111D",
"O  c #0E0122",
"+  c #110324",
"@  c #180A2B",
"#  c #1D1131",
"$  c #240E29",
"%  c #25102E",
"&  c #2C132C",
"*  c #3A182A",
"=  c #311731",
"-  c #361A33",
";  c #3A1D33",
":  c #2A1933",
">  c #43141E",
",  c #46181D",
"<  c #4C221F",
"1  c #441420",
"2  c #471D26",
"3  c #44212E",
"4  c #4C2120",
"5  c #5B2228",
"6  c #432535",
"7  c #4B2435",
"8  c #432A3C",
"9  c #4C2C3A",
"0  c #492C36",
"q  c #552C3E",
"w  c #4C333A",
"e  c #4A363E",
"r  c #57353B",
"t  c #603239",
"y  c #4C3748",
"u  c #5D3343",
"i  c #4C3E53",
"p  c #562E42",
"a  c #653746",
"s  c #653946",
"d  c #4D4155",
"f  c #5D4653",
"g  c #7C5558",
"h  c #704D51",
"j  c #795760",
"k  c #A4330F",
"l  c #A32D13",
"z  c #A53612",
"x  c #A63913",
"c  c #AD3B15",
"v  c #AB3215",
"b  c #B03516",
"n  c #9B3B22",
"m  c #AD4310",
"M  c #BE5E14",
"N  c #BE441C",
"B  c #8F4F3E",
"V  c #91433E",
"C  c #AD4F29",
"Z  c #D4400D",
"A  c #DA440C",
"S  c #DA4B0D",
"D  c #D9470B",
"F  c #DD520D",
"G  c #DE590E",
"H  c #DF5E1E",
"J  c #C1491D",
"K  c #E14D0B",
"L  c #E2550C",
"P  c #E45B0D",
"I  c #EA5D0C",
"U  c #DF6616",
"Y  c #ED630D",
"T  c #EA660D",
"R  c #F26C0D",
"E  c #F5740C",
"W  c #F7790D",
"Q  c #F97C0D",
"!  c #F8760E",
"~  c #EF6A11",
"^  c #E5651B",
"/  c #F47B1C",
"(  c #F47718",
")  c #CD5223",
"_  c #CB582D",
"`  c #DE5B26",
"'  c #D2522B",
"]  c #DB6021",
"[  c #DE653A",
"{  c #E96C22",
"}  c #E46A26",
"|  c #EE7525",
" . c #EA762B",
".. c #F47A26",
"X. c #E26D3B",
"o. c #E06639",
"O. c #E77538",
"+. c #884848",
"@. c #834C51",
"#. c #8C4D53",
"$. c #8C5255",
"%. c #8F5A55",
"&. c #9D5658",
"*. c #985D58",
"=. c #944D48",
"-. c #A95B4C",
";. c #B45C4D",
":. c #8A655C",
">. c #9D6359",
",. c #B6664B",
"<. c #A76E58",
"1. c #B06056",
"2. c #AA785D",
"3. c #B26E4F",
"4. c #865D63",
"5. c #8F6E69",
"6. c #AD6A62",
"7. c #A76660",
"8. c #B46E64",
"9. c #B57563",
"0. c #AB7675",
"q. c #B57C7A",
"w. c #A97860",
"e. c #C96948",
"r. c #C6734B",
"t. c #C97251",
"y. c #E37D45",
"u. c #E37D54",
"i. c #C67F6A",
"p. c #F3820C",
"a. c #FB850D",
"s. c #FB8C0D",
"d. c #FD920D",
"f. c #F98919",
"g. c #FF9915",
"h. c #FF991A",
"j. c #FA9516",
"k. c #FFA71A",
"l. c #FB8627",
"z. c #F59832",
"x. c #F4833C",
"c. c #FBA634",
"v. c #FFB433",
"b. c #BC8762",
"n. c #B48279",
"m. c #BC9178",
"M. c #A18969",
"N. c #C58858",
"B. c #DA8455",
"V. c #D5925D",
"C. c #E88146",
"Z. c #F68D45",
"A. c #F89948",
"S. c #ED8E53",
"D. c #EA8E5A",
"F. c #EF915B",
"G. c #F29858",
"H. c #F39758",
"J. c #FBAA49",
"K. c #FDA75E",
"L. c #C9876A",
"P. c #C89768",
"I. c #D99E75",
"U. c #CD9871",
"Y. c #E89764",
"T. c #CCAB78",
"R. c #DBA774",
"E. c #F3A36C",
"W. c #FAB463",
"Q. c #F5AD73",
"!. c #FAB876",
"~. c #E8AC73",
"^. c #9D8082",
"/. c #B39791",
"(. c #BDA7A1",
"). c #D29E83",
"_. c #C8A595",
"`. c #D8AD87",
"'. c #E8A584",
"]. c #F7BB83",
"[. c #EDAF92",
"{. c #EDB79C",
"}. c #EEB388",
"|. c #C4B9B4",
" X c #D2B6AC",
".X c #FFCA81",
"XX c #F9C78B",
"oX c #FFD096",
"OX c #F6CB91",
"+X c #DCC5BA",
"@X c #F9CDA0",
"#X c #FBD7AC",
"$X c #E5C6B8",
"%X c #F2CDB2",
"&X c #F9D6B8",
"*X c #ECD1BD",
"=X c #FFE2AF",
"-X c #FFE0B5",
";X c #E6D5C6",
":X c #F1DFC6",
">X c #FDEDCC",
",X c #F9E3C7",
"<X c #F9E8D4",
"1X c #FEF5D9",
"2X c #FFFEEB",
"3X c #FEF4E1",
"4X c ivory",
/* pixels */
"                            5 p p a #.&.&.&.&.&.&.&.            ",
"                            h h g 4.0.q.q.q.^.L.q.q.            ",
"                    X X & w :.n.U._. X$X X$X;X;X;X|.4.7         ",
"                    3 0 r :.m.T.).'.%X:X<X1X2X2X4X;X^.j         ",
"                + 3 B 3.N.T.OX`.w.w.'.#X1X2X2X2X3X<X+X/.j p     ",
"                X 3 ,.F.!..XoX~.<.-.V.XX>X2X2X<X*X*X<X Xj 7     ",
"            + O X 3 ,.F.W.!..X!.B.r.r.R.,X2X2X:X).).:X|.h ;     ",
"            w 0 ; r ,.D.E.!.!.Q.Y.B.r.L.%X1X2X:XI.L._./.f &     ",
"        . 0 2.b.%.=.t.D.E.Q.Q.Q.E.Y.B.D.].=X1X>XXXP.:.f         ",
"        w g P.~.9.1.e.C.S.H.H.H.G.S.C.C.H.].,X>XXXt.r $         ",
"    + e M.T.R.U.8.;._ ^ } | ....| { ^ ^ H u.%X%XS.C 4 +         ",
"    + e T.XXI.8.#.+.N S L P I Y Y Y Y L A [ {.{.[ k > +         ",
"    + w P.!.L.$.9 5 v A S S A S I ~ ~ Y P  .'.'.[ l 1 +         ",
"    + w L.R.>.u % o l A S S Z S ~ W ! R T  .E.Y.` l 1 +         ",
"    + 0 2.b.u % + 1 z S L L S G p.d.a.Q T | J.A.] z > +         ",
"    + 6 <.9.u % @ 1 x L I I S U j.k.d.Q I O.W.W.} z > +         ",
"    + 6 <.i.*.u % 1 x L Y Y F ^ c.v.h.E K X.@X@Xy.z , +         ",
"    + 6 >.i.8.@.- > x L ~ R P ^ z.c.h.W K o.[.}.O.m , +         ",
"    + ; @.8.8.$.- o x P Q Q ~ ~ / f.g.d.R ^ o.X./ M < +         ",
"    + - a $.6.>.p 5 x G R ! ~ Y T E s.s.R I K K E ) < X         ",
"        = q *.6.$.V b S F F S S P T E R P G I I L x 1 O         ",
"        + ; $.8.6.;.J A S S Z A Y E E ~ L G ~ ~ K z 1 @         ",
"        + - @.6.8.,.' A P G S G W s.s.E Y T W ! L v 1 +         ",
"        + = a #.7.t.) S P P F U j.k.j.p.~ R a.p.P x 1 +         ",
"            = q #.;.) L Y Y S U c.v.g.Q E W d.s.T x 1 +         ",
"            O = a =.J L R R P ^ z.c.g.a.R E s.a.G z * +         ",
"                = 5 m G E Q R ~ ( f.d.d.E R W R L z 1 +         ",
"                O * n ] / f.l...l.l.v.J.A.z.Z.C.O.C 2 +         ",
"                X * V e.y.Z.H.K.W.!.oX#X-X&X#X@X}.9.0 +         ",
"                @ : u @.-.,.9.N.L.U.(.(.+X|.(.(./.5.8 +         ",
"                @ % = ; 3 6 0 0 w e d d d d i y y 8 :           ",
"                # # + + O X + + + + X X X X O X X + @           "
};
