/* XPM */
static char *e8256145d9734120b242ac275abb708aS201LZnOdU0lcS5U[] = {
/* columns rows colors chars-per-pixel */
"64 64 245 2 ",
"   c None",
".  c #0E001E",
"X  c #38121F",
"o  c #360D1F",
"O  c #0E0124",
"+  c #120424",
"@  c #1D0925",
"#  c #1D0C2A",
"$  c #1A0825",
"%  c #1C1030",
"&  c #210E29",
"*  c #220B25",
"=  c #360F21",
"-  c #2C132D",
";  c #28122C",
":  c #361121",
">  c #3A1323",
",  c #37192B",
"<  c #2B1531",
"1  c #3A1D33",
"2  c #331931",
"3  c #3B2333",
"4  c #3A2739",
"5  c #5A1C1C",
"6  c #58181A",
"7  c #5E231C",
"8  c #652B1C",
"9  c #4B1E2B",
"0  c #472538",
"q  c #542C3D",
"w  c #572B34",
"e  c #59343A",
"r  c #4C262F",
"t  c #65373A",
"y  c #702E2C",
"u  c #3A2C43",
"i  c #562E41",
"p  c #5D3342",
"a  c #5A3B44",
"s  c #4C3545",
"d  c #663A46",
"f  c #713E4B",
"g  c #5A434A",
"h  c #6A4847",
"j  c #78454B",
"k  c #684954",
"l  c #754B55",
"z  c #735352",
"x  c #695A67",
"c  c #7C5861",
"v  c #74626B",
"b  c #7D6758",
"n  c #6E4034",
"m  c #8C2D15",
"M  c #8B2513",
"N  c #963619",
"B  c #8F3017",
"V  c #B53913",
"C  c #AC3D16",
"Z  c #893B31",
"A  c #AC3D22",
"S  c #CA3E11",
"D  c #B64112",
"F  c #B74518",
"G  c #A94A14",
"H  c #924B39",
"J  c #B24B2F",
"K  c #B1643F",
"L  c #9E4916",
"P  c #D4440E",
"I  c #D9450D",
"U  c #D54C0E",
"Y  c #DB4C0D",
"T  c #DC530E",
"R  c #D6540E",
"E  c #C84718",
"W  c #D74A13",
"Q  c #DC5312",
"!  c #D75817",
"~  c #CA5015",
"^  c #E14D09",
"/  c #E3550C",
"(  c #E45B0D",
")  c #E95D0D",
"_  c #E9560A",
"`  c #E45A13",
"'  c #D66315",
"]  c #EC630D",
"[  c #ED6B0D",
"{  c #E5620E",
"}  c #F26C0D",
"|  c #F1660D",
" . c #F5730D",
".. c #F57A0D",
"X. c #F97C0D",
"o. c #F8760B",
"O. c #EB6411",
"+. c #E96917",
"@. c #F16B11",
"#. c #EA7419",
"$. c #F47414",
"%. c #F57919",
"&. c #EC710D",
"*. c #C9552B",
"=. c #D75927",
"-. c #CC5730",
";. c #D9652B",
":. c #D56B3C",
">. c #E56829",
",. c #E87527",
"<. c #F47A27",
"1. c #E97A37",
"2. c #E87436",
"3. c #E05C27",
"4. c #864A48",
"5. c #985746",
"6. c #874D53",
"7. c #895555",
"8. c #9B5457",
"9. c #985958",
"0. c #8F4F4B",
"q. c #A65A4B",
"w. c #B95944",
"e. c #A35D5B",
"r. c #B05F52",
"t. c #876457",
"y. c #9A6558",
"u. c #9D7056",
"i. c #B96A4C",
"p. c #A5675B",
"a. c #B46557",
"s. c #A8755B",
"d. c #AE6F50",
"f. c #A15E60",
"g. c #8B6C71",
"h. c #977678",
"j. c #926E68",
"k. c #AA6963",
"l. c #B36C63",
"z. c #A87669",
"x. c #B87764",
"c. c #AC7672",
"v. c #855F67",
"b. c #C7734C",
"n. c #C97B54",
"m. c #CE6F48",
"M. c #E37949",
"N. c #E47C53",
"B. c #E06E44",
"V. c #C27D69",
"C. c #FA840D",
"Z. c #FB8B0D",
"A. c #F6820D",
"S. c #FC910E",
"D. c #F88817",
"F. c #FD9413",
"G. c #FE9C16",
"H. c #FD991C",
"J. c #EF8515",
"K. c #F68828",
"L. c #F89928",
"P. c #EC8339",
"I. c #F78633",
"U. c #FD9738",
"Y. c #FDA82A",
"T. c #FBA734",
"R. c #FFA71D",
"E. c #B1825E",
"W. c #B88766",
"Q. c #B78974",
"!. c #AF8D6F",
"~. c #9F837F",
"^. c #CA8658",
"/. c #DA8557",
"(. c #EA8549",
"). c #F4944A",
"_. c #E68A56",
"`. c #ED955C",
"'. c #F59B5A",
"]. c #F28F4A",
"[. c #F9A556",
"{. c #FDB65B",
"}. c #FFA848",
"|. c #C88968",
" X c #CA936B",
".X c #D49868",
"XX c #C79779",
"oX c #D79974",
"OX c #D08B6A",
"+X c #EA9965",
"@X c #F29D63",
"#X c #E7946D",
"$X c #D7A675",
"%X c #D5A875",
"&X c #ECA769",
"*X c #F5A669",
"=X c #E5A776",
"-X c #F4AB73",
";X c #F7B777",
":X c #F0B573",
">X c #FEC37C",
",X c #EFC27F",
"<X c #A38B88",
"1X c #BC8C86",
"2X c #A59698",
"3X c #B5958E",
"4X c #BAA39E",
"5X c #A69FA0",
"6X c #AFA3A2",
"7X c #C69888",
"8X c #C2938C",
"9X c #D7A786",
"0X c #D5AC92",
"qX c #EAA785",
"wX c #EABA85",
"eX c #F5B786",
"rX c #E9B798",
"tX c #F6BD96",
"yX c #D7B7A9",
"uX c #D6BDB2",
"iX c #CEB0A6",
"pX c #EABFA7",
"aX c #FBC884",
"sX c #FCD18A",
"dX c #F8C998",
"fX c #FED19A",
"gX c #ECC588",
"hX c #D8C6B9",
"jX c #E9C5AA",
"kX c #F4C8A3",
"lX c #F7D5AA",
"zX c #E8CBB8",
"xX c #F5D8B7",
"cX c #F0D0B6",
"vX c #FDE2B9",
"bX c #EAD7C8",
"nX c #F3DAC6",
"mX c #FAE7C9",
"MX c #F6E9D4",
"NX c #FDF3D9",
"BX c #EEE2D2",
"VX c #FEFAE5",
"CX c #FFFEEB",
"ZX c #FBF6E3",
"AX c #FFFFF1",
/* pixels */
"                                                        q q q i i i p f 6.6.8.f.8.8.8.8.8.8.8.8.8.8.8.8.                        ",
"                                                        p p p p i d f l 6.8.f.f.f.f.f.f.f.f.f.f.f.f.f.f.                        ",
"                                                        d f h k k l l 7.f.f.c.c.l.c.c.k.c.c.c.c.c.c.c.k.                        ",
"                                                      a h l 7.7.7.j.j.c.~.1X1X1X1X1X1X8X8X8X8X8X8X8X1X1Xh.                      ",
"                                          . + + # - 4 g z u.j.z.c.Q.1X1X4XiXiXiXyXyXiXyXyXhXhXhXuXuXiX6Xh.l i                   ",
"                                        # & & & - 3 e h t.z.!.Q.XX8X0X0XpXpXzXzXbXzXzXnXbXbXBXBXBXBXhX6Xh.c f i                 ",
"                                        , , , r r e h z E.!.3X9X7X7X0XrXpXcXnXnXnXMXMXMXNXZXZXZXZXZXbXiX2Xv.6.k                 ",
"                                      9 r e t n h z u.E.!.%X%X9XoXXX7XqXpXcXnXnXMXNXZXZXCXCXCXCXAXZXBXuX4X<Xh.v.c               ",
"                                  # , w t H 5.u.K E.!.%X%XwX9X%XQ.W.W.Q.9XdXlXvXmXNXNXCXCXCXCXCXZXZXBXbXuXiX3X~.v.l p           ",
"                                O # , w H q.i.^..X%X%X,XgXgXgX%XW.s.s.x..X:XdXvXmXNXVXCXCXCXZXZXZXMXBXbXbXhXiX3Xg.l p q         ",
"                                . + , e H i./.+X{.:X,X>XsXsX,X%XE.d.q.d.^.=XgXfXvXNXVXCXCXCXNXMXnXnXnXnXbXbXhX3Xg.l i 0         ",
"                              O . $ , y H i.`.[.{.:X>X,XsXsX,X%XE.d.K d.^..X=XdXxXNXCXCXCXCXNXBXbXjXjXcXnXbXhX4Xg.k s 0         ",
"                          . O O O $ , e 0.b._.`.*X-X;X>X>XaX>X&X/.^.b.b.b.^.oXrXxXMXCXAXAXZXMXxXyX0X0XrXcXcXhX4Xv k q ,         ",
"                        & # @ + $ & , t 5.b.N.@X*X-X;X;X>X>X,X&X`./.n.m.b.^.OX0XjXMXNXCXAXZXBXzX9XoX8X9XjXzXuX2Xg.a 0 -         ",
"                        3 3 3 3 < 2 r y q.b.N.+X@X*X-X;X;X;X;X*X&X/./.n.m.b.OXoXjXmXNXVXCXVXMXcX0XoXOXoX0XiX6X<Xv a 0 -         ",
"                      r e g h e e q t j q.m._.+X@X*X*X;X;X;X;X-X&X`._./.n.n./.$XgXxXmXNXVXNXMXcXrXoXOX|.1X3X<Xh.x s 4           ",
"                  # 4 g b u.E.t.4.z 4.5.a.m._.@X@X@X-X-X-X-X-X-X-X+X+X_./././.+XwXdXvXmXNXNXNXxXdX:X$XW.E.g.b x g               ",
"                # ; 4 h u.E.W.E.s.5.8.q.i.n._._.@X@X*X-X-X-X-X*X*X@X+X`./._./.+X-X>XsXvXmXNXNXmXkXwX$XE.t.h g u                 ",
"                , 4 g b E..X%X.XE.a.p.r.m.m.N.(.`.`.'.@X@X@X'.@X@X`.'.(.(.N.(._.`.*XeXfXvXmXmXvXfX:X.Xd.4.e 3 -                 ",
"              e g h b !.^.%X&X%X|.l.a.i.m.m.2.M.(.(.].].].].).].].].].(.M.1.1.M.(.].*XeXlXmXnXxXaX&X^.K n r - $                 ",
"          & 4 g b b !.!.$XoXoXOXV.l.r.w.-.-.>.>.2.2.1.1.I.1.<.1.P.1.2.,.2.>.>.>.>.2.N.=XtXnXxXkX:X/.:.H 8 3 * $                 ",
"        + & 4 h E.XX%XgX=XoXoXV.l.f.q.w.J *.! ! ` +.+.%.%.@.<.<.+.%.,.+.+.+.O.` Q =.B._.rXcXcXtX@X:.J N 8 X * +                 ",
"        . & 4 z !.%XgXgX=XoX|.l.f.8.8.H J E W ` ` ` ` ) O.O.O.@.| O.| | O.O.) _ I =.3.N.qXpXjXqX_.;.F B 7 X $ O                 ",
"        . & 4 z !.%XgXeX=X|.x.9.7.j Z Z A S P Y ^ / ) / / _ _ ) ) | ) ) | ) _ ^ ^ W 3.N.qXrXrXqXN.-.V M 6 X $ .                 ",
"        . % 4 z E.%X,X,XoXV.k.7.f q w y N S S ^ ^ ^ ^ Y ^ ^ ^ / ) ) | | | | ) _ / / >.M.=XqXqX#XB.*.V M 6 = @ O                 ",
"        . & 3 h E.%X:X&XOXx.7.f q 0 6 8 M V S S I I Y I I ^ I ^ ) | } @.} } | | ) ) >.M.+XqXqX#XB.*.V M 6 = @ +                 ",
"        . % 3 h E. X%X.Xx.9.j i 0 - 9 6 M V S I Y Y Y W P S W / ) [  .o.o.o.} } ] ] ,.P.+X&X=X_.B.E V M 6 = @ O                 ",
"        . # 3 h u. X X|.p.l p 0 & * = 6 M V P Y Y Y Y Y P P Y T O. ...X.X.o.o.} | | ,.P.'.&X+X_.2.=.V M 6 = @ O                 ",
"        # % 3 n u.E.W.s.7.t 0 & # @ = 5 m V P Y / / T Y Y I R { &.A.Z.Z.C.X.X. .} [ #.1.).[.[.(.>.W V m 6 : $ +                 ",
"        . & 3 a y.s.W.p.h q 2 # # * = 5 B V P / / ` ` / Y U R { ..S.S.G.S.C.X.o.[ [ #.I.).[.[.).2.=.V m 5 X @ O                 ",
"        . & 3 a t.s.x.y.j q 2 & # * = 5 B D W / ` ) ` ( Q T Q [ J.F.G.G.F.C.C. .] ] #.P.}.{.{.'.1.! F m 5 X @ +                 ",
"        . % 3 e 5.s.x.p.j p 3 < # # = 5 B V U ( ) ) ) ( T T ' #.J.R.Y.R.H.F.C.} { ' #.P.&X,X>X[.(.;.F m 5 : @ +                 ",
"        + # , a 7.l.V.l.9.j p 0 - - X 5 m D U / ) O.] ( / T ' ,.L.T.T.Y.R.F.J.[ _ ` >._.eXdXfXeX(.=.F m 6 X $ .                 ",
"        O @ 1 a t.s.V.x.k.8.f i 3 - X 5 m V R ( | | ] ) ( T ' #.P.T.T.Y.R.F...[ / Q 3.N.eXkXkXeX`.;.F B 7 X $ .                 ",
"        O @ 2 e 0.s.V.V.l.k.6.d 0 - X 5 B D U ) | @.} ] ( ` { ,.L.T.T.T.R.F.A.&.) ` 3.N.qXpXtXeX].;.F N 7 X # O                 ",
"        + @ 2 q 4.p.l.V.x.k.9.h 0 , X 5 m D R ( } }  .[ ] { +.,.K.L.L.T.H.S.A.o.] ) 3.M.#X#XqX@X].;.~ L 8 X * O                 ",
"        + @ 2 i j 9.l.x.x.l.8.j 0 , = 6 B V R ] @.o.o.$.} @.O.@.%.K.K.H.G.F.S.A. .] +.>.M.N.(.M.K.#.' L 8 , * .                 ",
"        + @ - 0 h 7.e.l.l.k.9.j s 1 > 5 B D T ]  .X.X.X.$.@.@.@.&.%.A.D.F.S.S.Z.o.@.` 3.3.3.>.>.#.#.' L 8 , & +                 ",
"        + @ - 0 d j 8.9.k.k.p.l d 0 9 8 N V R ) [ o.$.o.@.| | | @.@.$...Z.F.S.Z.$.@.) ` Q W / ) O.[ ' L 8 > * +                 ",
"          $ - 1 q d j 7.p.p.p.9.f p y y N V W / { [ [ [ O.) _ ` ) ] [ ..A.A.A...@.@.) _ ^ ^ ^ _ ] { ~ L 8 , * .                 ",
"              2 1 0 p f 7.p.p.y.6.4.Z Z A S S I / ( ( ( / T / / _ ) @.} $.....&.] ( ( / / / _ ) ) / F N 7 > # O                 ",
"                & 2 0 d 4.e.k.k.9.8.H H J S W I Y Y R T Y I I ^ / ) ] } }  .&.[ { ` T / ) ) ) _ / Y V B 7 : @ +                 ",
"                + & 2 q j 9.k.l.k.e.r.w.-.S S I U Y Y U P I I Y ( ] [  . . .} O.( ( ( ( ] | | ) _ P V M 5 = @ O                 ",
"                O $ - q j 9.k.l.k.k.r.w.-.E I I Y Y Y Y P P W T { &.&.....$.} [ ( T ( { @. .} | / P V M 5 = @ O                 ",
"                O $ - 0 f 8.f.l.l.l.a.w.J E W I T T / Y U Y R R &...J.Z.A.A.o.} ] { { ]  .o.$.} ) U V m 5 : $ +                 ",
"                + @ - 0 f 6.f.f.k.l.b.m.-.W W W / / / T Y R T { J.J.S.F.S.A.X.$.[ O.] [ $..... .) W V m 5 : $ O                 ",
"                + @ - 0 d f 6.f.f.l.a.w.-.W W ` ( ( ( ( T R ' &.J.S.G.G.F.Z.C.X.[ [ [ $...C.C.$.] R D B 7 : # O                 ",
"                  $ ; 1 q d f 6.f.f.b.w.-.=.W ^ ( ) ] ( T T ! #.J.Y.R.R.G.F.C.X. .@.} ..C.Z.Z...[ R D B 7 X $ #                 ",
"                      2 1 0 i f 6.8.r.w.*.W Q T ) ] ] ( T T ' #.L.T.Y.Y.H.F.C.X. .[ o...A.S.Z.A.[ ! D m 7 : @ O                 ",
"                        & 2 0 i f 8.q.w.-.E T ( ) ] ] ) ( Q +.,.L.T.T.Y.R.F.C.X. . .o...S.S.S.A.[ R G m 5 : @ O                 ",
"                        + & - 0 p j 0.J J W Q ( ] } } ] ( T ` ,.P.T.T.Y.H.F.C.X.o.o. .o.A.S.Z...[ R D m 5 : @ +                 ",
"                          + ; 2 q t f Z A E Q ( | } } } ] { O.#.K.L.L.L.H.F.Z.C.o.o.o.o.A.Z.C. .] R D m 5 : @ O                 ",
"                              2 1 0 w Z N E R ] } o.X. .| @.@.@.#.D.K.F.F.F.S.Z.o.}  .o.o.o.o.} { U D m 5 : $ +                 ",
"                                ; - 9 8 N D R (  .X.X.X. .@.$.$.#.J.K.D.F.G.F.F.C...$. .$.$. .@.{ R F B 5 : @ +                 ",
"                                + * , 5 B J ! >.#.%.D.D.<.%.%.<.<.<.K.L.Y.Y.Y.U.U.U.I.I.I.I.1.<.,.;.F B w > * O                 ",
"                                . $ ; 5 y J *.;.,.K.K.I.I.I.I.I.I.U.U.U.}.{.{.{.{.*X[.*X[.'.'.].(.M.m.H w > $ +                 ",
"                                O $ - 9 y H -.m.1.P.P.U.).).).}.[.[.{.{.aXaXsXfXlXfXfXfXdXgXeXeX-X#XV.5.t , # O                 ",
"                                O $ - 0 f 0.q.w.b.m./.(._.`.`.@X[.*X:XwXdXkXlXxXxXBXxXxXcXcXjXrXrXoXQ.t.a 3 # .                 ",
"                                O # ; 0 t f 0.q.r.i.b.^.^.^.^..X.X.X%X%X0XiXyXhXhXhXhXhXhXiXiXiX7X7X~.t.a 4 & O                 ",
"                                $ $ ; 1 q p f j 4.H 5.5.5.p.s.u.s.E.E.~.<X<X2X2X5X5X5X5X2X2X2X<X<Xh.g.z s 2 % +                 ",
"                                % $ % < 2 0 0 q e e e t t h n g h h h k x x x x x v x v x x x x k g g s 4 < %                   ",
"                                # # % % ; - - - - , , , 2 3 3 3 4 4 4 4 4 4 u u u u u u u u 4 4 4 4 u 2 < ;                     ",
"                                % % % % # $ @ $ @ @ * * # # # # # $ $ # # # # # # # # # # # # # $ $ # # % %                     ",
"                                % % # # + O + O O O O . . O . . . . . O . . . . . . . . . O . O O O O O + %                     "
};
