/* XPM */
static char *result[] = {
/* columns rows colors chars-per-pixel */
"64 56 212 2 ",
"   c #061C39",
".  c #0B1E3C",
"X  c #121B34",
"o  c #171F3A",
"O  c #0B213D",
"+  c #172039",
"@  c #1B243C",
"#  c #182036",
"$  c #23293E",
"%  c #2B2D3D",
"&  c #20253B",
"*  c #092946",
"=  c #082C49",
"-  c #082744",
";  c #1C2645",
":  c #172943",
">  c #1D2B44",
",  c #162D4D",
"<  c #1A2E4C",
"1  c #172741",
"2  c #09314E",
"3  c #1D324C",
"4  c #14324F",
"5  c #0B3654",
"6  c #0B3956",
"7  c #0C3C5B",
"8  c #1A3551",
"9  c #1E3C56",
"0  c #133C5B",
"q  c #1F3D58",
"w  c #222C44",
"e  c #232D4A",
"r  c #2A2E44",
"t  c #24314A",
"y  c #2B344D",
"u  c #2C3549",
"i  c #3E3C4B",
"p  c #363444",
"a  c #293451",
"s  c #243B53",
"d  c #2D3951",
"f  c #2D3C59",
"g  c #263E59",
"h  c #333B52",
"j  c #363C56",
"k  c #423E4B",
"l  c #0C415C",
"z  c #21435D",
"x  c #2A465D",
"c  c #374056",
"v  c #394256",
"b  c #36425B",
"n  c #3C435A",
"m  c #3D495D",
"M  c #0E4465",
"N  c #0F476B",
"B  c #0F486B",
"V  c #134463",
"C  c #114B65",
"Z  c #134D6A",
"A  c #1C4966",
"S  c #13536E",
"D  c #195D6F",
"F  c #135573",
"G  c #165A74",
"H  c #1B5B75",
"J  c #155C7A",
"K  c #175877",
"L  c #244B65",
"P  c #3D4B62",
"I  c #384D67",
"U  c #385D77",
"Y  c #32556C",
"T  c #1C6473",
"R  c #17607E",
"E  c #1A637D",
"W  c #1D6A7E",
"Q  c #256876",
"!  c #22747F",
"~  c #3F6179",
"^  c #41455D",
"/  c #44495E",
"(  c #464756",
")  c #554B53",
"_  c #444D61",
"`  c #4A4C63",
"'  c #414E6A",
"]  c #494F68",
"[  c #445267",
"{  c #4C5266",
"}  c #45526A",
"|  c #4C5569",
" . c #4C5A6C",
".. c #515466",
"X. c #535669",
"o. c #58576C",
"O. c #525C6D",
"+. c #5B5C6E",
"@. c #4C5D73",
"#. c #5B5E71",
"$. c #535E70",
"%. c #504F66",
"&. c #605F71",
"*. c #5C616E",
"=. c #446476",
"-. c #466D7D",
";. c #4C6476",
":. c #556374",
">. c #5B6374",
",. c #5E6C7C",
"<. c #57657B",
"1. c #57757F",
"2. c #646373",
"3. c #696676",
"4. c #626C7C",
"5. c #6B6C7A",
"6. c #696A76",
"7. c #716E7B",
"8. c #63717D",
"9. c #6A737E",
"0. c #6A787F",
"q. c #75727D",
"w. c #7A767F",
"e. c #1B6480",
"r. c #1C6D86",
"t. c #1C6F88",
"y. c #1E7286",
"u. c #1E748B",
"i. c #1F7991",
"p. c #246981",
"a. c #217585",
"s. c #237A86",
"d. c #237C89",
"f. c #27768A",
"g. c #217C90",
"h. c #387A8F",
"j. c #5D6A80",
"k. c #487182",
"l. c #557C84",
"z. c #537485",
"x. c #4B6D83",
"c. c #616F86",
"v. c #6C6F82",
"b. c #657383",
"n. c #697684",
"m. c #6D7B86",
"M. c #6E7C89",
"N. c #677589",
"B. c #727D85",
"V. c #7D7A81",
"C. c #737D8A",
"Z. c #7A7884",
"A. c #827D82",
"S. c #807E89",
"D. c #26838D",
"F. c #298A8F",
"G. c #29868A",
"H. c #2D928E",
"J. c #2A8E92",
"K. c #228095",
"L. c #2E9693",
"P. c #329B93",
"I. c #30978E",
"U. c #36A598",
"Y. c #34A094",
"T. c #598688",
"R. c #5B8B8A",
"E. c #418D8E",
"W. c #728186",
"Q. c #76848B",
"!. c #78848C",
"~. c #7A898C",
"^. c #7D8A93",
"/. c #798691",
"(. c #69899E",
"). c #41A19E",
"_. c #6F8FA3",
"`. c #7192A8",
"'. c #898486",
"]. c #858186",
"[. c #82918F",
"{. c #828B96",
"}. c #878D98",
"|. c #86929B",
" X c #869496",
".X c #8D99A1",
"XX c #8D97A0",
"oX c #929EA5",
"OX c #96A1A7",
"+X c #96A2A9",
"@X c #9BA5AC",
"#X c #9DA8AE",
"$X c #9DAAB1",
"%X c #A3AEB2",
"&X c #A6B1B5",
"*X c #ABB5B8",
"=X c #B2BDBE",
"-X c #96B8C9",
";X c #A5BDCE",
":X c #B5BFC0",
">X c #A7BFD1",
",X c #B7C1C2",
"<X c #BAC3C4",
"1X c #BDCCD9",
"2X c #ADC6D5",
"3X c #C4CBCB",
"4X c #C9CFCE",
"5X c #CCD3D4",
"6X c #D6DAD7",
"7X c #C6CFD8",
"8X c #D0D9E4",
"9X c None",
/* pixels */
"9X9X9X9X9X9X9X9X9X9X9X9X9X9X9X9X9X9X9X9X9X9X9X9X9X9X9X9X9X9X#.o.o.+.9X9X9X9X9X9X9X9X9X9X9X9X9X9X9X9X9X9X9X9X9X9X9X9X9X9X9X9X9X9X",
"9X9X9X9X9X9X9X9X9X9X9X9X9X9X9X9X9X9X9X9X9X9X9X9X9X9X9X9X9X2.q.w.V.q.2.9X9X9X9X9X9X9X9X9X9X9X9X9X9X9X9X9X9X9X9X9X9X9X9X9X9X9X9X9X",
"9X9X9X9X9X9X9X9X9X9X9X9X9X9X9X9X9X9X9X9X9X9X9X9X9X9X9X9X9X2.A.A.A.A.3.9X9X9X9X9X9X9X9X9X9X9X9X9X9X9X9X9X9X9X9X9X9X9X9X9X9X9X9X9X",
"9X9X9X9X9X9X9X9X9X9X9X9X9X9X9X9X9X9X9X9X9X9X9X9X9X9X9X9X8 #.7.7.7.q.#.A 9X9X9X9X9X9X9X9X9X9X9X9X9X9X9X9X9X9X9X9X9X9X9X9X9X9X9X9X",
"9X9X9X9X9X9X9X9X9X9X9X9X9X9X9X9X9X9X9X9X9X9X9X9X9X9X9XS V +.Z.5.&.v.#.p.u.9X9X9X9X9X9X9X9X9X9X9X9X9X9X9X9X9X9X9X9X9X9X9X9X9X9X9X",
"9X9X9X9X9X9X9X9X9X9X9X9X9X9X9X9X9X9X9X9X9X9X9X9X9X9XG u.V X.7.7.&.5.#.p.P.a.9X9X9X9X9X9X9X9X9X9X9X9X9X9X9X9X9X9X9X9X9X9X9X9X9X9X",
"9X9X9X9X9X9X9X9X9X9X9X9X9X9X9X9X9X9X9X9X9X9X9X9X9XG d.r.0 ..5.S.S.Z.#.H P.P.a.9X9X9X9X9X9X9X9X9X9X9X9X9X9X9X9X9X9X9X9X9X9X9X9X9X",
"9X9X9X9X9X9X9X9X9X9X9X9X9X9X9X9X9X9X9X9X9X9X9X9X7 u.u.F V ] v.3X7X].#.e.G.P.P.J 9X9X9X9X9X9X9X9X9X9X9X9X9X9X9X9X9X9X9X9X9X9X9X9X",
"9X9X9X9X9X9X9X9X9X9X9X9X9X9X9X9X9X9X9X9X9X9X9XS M e.K u.A ] :.`.2X}.v.h.P.G.H.p.a.9X9X9X9X9X9X9X9X9X9X9X9X9X9X9X9X9X9X9X9X9X9X9X",
"9X9X9X9X9X9X9X9X9X9X9X9X9X9X9X9X9X9X9X9X9X9XG u.N S g.a.U U z.`.>X7X8X1X).P.f.a.P.a.9X9X9X9X9X9X9X9X9X9X9X9X9X9X9X9X9X9X9X9X9X9X",
"9X9X9X9X9X9X9X9X9X9X9X9X9X9X9X9X9X9X9X9X9XJ d.t.F g.r.F U U x.`.>X1X1X-Xd.P.P.d.P.Y.a.9X9X9X9X9X9X9X9X9X9X9X9X9X9X9X9X9X9X9X9X9X",
"9X9X9X9X9X9X9X9X9X9X9X9X9X9X9X9X9X9X9X9XG d.t.G g.r.K g.Z $.q.(.>X}.c.f.P.d.L.P.G.P.P.s.9X9X9X9X9X9X9X9X9X9X9X9X9X9X9X9X9X9X9X9X",
"9X9X9X9X9X9X9X9X9X9X9X9X9X9X9X9X9X9X9XG u.y.G i.t.G g.r.0 +.q._.>XZ.#.K L.P.d.L.Y.G.P.P.H 9X9X9X9X9X9X9X9X9X9X9X9X9X9X9X9X9X9X9X",
"9X9X9X9X9X9X9X9X9X9X9X9X9X9X9X9X9X9XG d.y.B u.y.M u.t.F V >.Z._.>XS.#.p.g.L.L.r.L.P.a.F.r.a.9X9X9X9X9X9X9X9X9X9X9X9X9X9X9X9X9X9X",
"9X9X9X9X9X9X9X9X9X9X9X9X9X9X9X9X9XJ g.t.F M E F M e.G u.V X.3.(.-XZ.#.p.L.d.J.r.d.J.r.d.y.L.H 9X9X9X9X9X9X9X9X9X9X9X9X9X9X9X9X9X",
"9X9X9X9X9X9X9X9X9X9X9X9X9X9X9X9X6 u.t.G u.N S u.N S g.t.0 X.2.<.C.Z.#.K L.P.f.r.P.a.r.L.d.F.r.r.9X9X9X9X9X9X9X9X9X9X9X9X9X9X9X9X",
"9X9X9X9X9X9X9X9X9X9X9X9X9X9X9XS B E F D.r.F i.r.F d.t.F V +.q.V.S.A.#.e.d.L.P.d.L.P.d.L.Y.a.a.d.9X9X9X9X9X9X9X9X9X9X9X9X9X9X9X9X",
"9Xl l 6 l 6 l l 6 l 6 l l 9Xl S B 6 C G F g.r.G i.t.G i.V o.V.'.'.S.#.p.P.d.L.P.d.L.P.a.d.W J W F 9XF J J F J F J J F J F J J 9X",
"} -.-.=.k.=.-.-.=.x.=.-.-.=.-.=.k.=.-.=.=.p.G g.y.G i.t.0 #.Z.'.'.V.#.H L.P.d.L.d.r.I.1.z.T.l.R.l.T.l.T.T.l.R.l.T.T.l.R.l.T.T.z.",
"X.3.3.2.&.3.5.q.7.3.5.3.5.2.3.2.2.2.&.&.&.x u.r.M u.t.F V #.q.A.A.w.#.p.d.L.P.r.r.d. .V.V.V.V.V.A.A.A.S.A.'.A.'.'.'.S.V.A.A.A.7.",
"h j n y j n ^ ^ ^ n ^ n n n n n j j h d y 9 E F M E G u.V +.V.Z.w.V.#.p.P.d.G.r.p.d.x { ..o.o.X.#.+.+.&.&.&.+.&.2.2.&.o.%.o.o.%.",
"< 8 8 3 8 3 , , 8 8 < , , 3 3 4 , < 8 4 8 5 F u.N S g.t.0 X.q.A.A.w.X.H L.P.a.t.P.s.F 9 z L 9 z s L z 9 9 z L z 9 s z L L L z a ",
"7 y.u.J g.G J J G g.G J J G y.S E S y.S M F d.t.F g.t.F 0 j ..2.2.%.f e.d.L.P.d.L.P.d.S W H.y.F.y.H.d.D.D.s.P.s.D.D.a.P.d.H.H.G ",
"6 G J Z e.F u.a.S e.S u.u.F J J K.J J C M i.t.G g.t.G u.V e h n n h e p.P.D.L.P.d.P.P.D W D.d.U.d.D.a.P.I.a.J.a.L.I.a.J.a.D.d.F ",
"2 7 M 7 M 7 M M 7 N 7 M M 6 M 7 C 7 M 7 G u.G g.t.J d.t.5 e ` n j ` y Z L.P.d.L.L.r.L.Q G r.R y.J r.e.r.r.e.a.J r.r.e.y.e.r.J N ",
"l u.u.T K.J J J G K.G J J J u.F e.S u.S l B a.t.M u.t.6 . r j y h j y = K L.P.r.F.r.d.G ! P.u.J.a.L.d.D.K.d.U.d.D.D.d.U.d.L.L.J ",
"6 J J Z e.S u.u.S e.S u.u.S J Z e.Z J C C M E F C E 6   3 f , , , , g 3 = G G.t.y.y.P.H W D.d.U.d.D.a.L.L.a.J.a.L.I.y.J.y.K.s.F ",
"2 7 M 7 N 7 M M 7 N 7 M M 7 M 5 5 5 M S u.N S u.V 5   < I F r.K K e.K I 3 = Z t.P.s.L.P.T E e.y.e.r.e.r.r.E y.E r.r.E y.E r.J N ",
"l r.y.Z J Z F G G i.F F F G y.F e.B F g.r.F i.t.5   < Y Q F T C Z T K T I 3 * F L.P.d.L.H.G W F.a.L.d.d.d.d.Y.d.D.g.a.J.y.L.L.J ",
"2 M M 2 2 5 M l 7 M 7 6 6 6 l C S S g.y.G i.r.6   < ;.A C 6 7 7 6 6 6 C A ;.t * G L.d.r.F.r.T D.r.E S V V F r.F E E V l M E E M ",
"* = = - . - * - - * * O O * = * l g.r.F i.y.6   3 4..XU A I O.[  .O.I A U .X1.t * G r.D.s.r.I.D 5 = = . O * = - * = - . - = 2 - ",
"9X: > t t t : : 1 1 > t t > : : T u.M G y.6   3 4.%X:X$X4.+.{ 4.v.{ >.<.@X:X%X8.3 * Z J.P.s.L.! , : > t e < 1 : : : t t t : : 9X",
"9Xn c / m / / / ^ / / / / / ` n V G J C 6   3 ,.%X<X:X<XW.m @ :.O.; / C.<X,X<X%X,.3 = G L.P.r.E g / / / / / / / / / / ^ / v n 9X",
"9X^ / ] { { ........| { { { | m Z g.E =   3 ,.%X=X=X<X<XB.{ :.8.4.:.| C.<X<X=X=X%X,.3 = G G.r.J x ......| | ......| | ` { / n 9X",
"9Xt u { m.,./ m m m O.!.^.m.:.L g.u.6   3 ,.&X,X@X&X6X4X4._ t v v r P n.4X6X&X@X,X%X4.3 = Z u.a.8 :.m.^.!.O.m m m / ,.m.] u t 9X",
"9Xy ..B.%X>.4.:.c 9.>.{.<X&X>.Q u.5   3 ,.&X<X4X3X5X6X<XC.>.8.,.,.8.>.W.<X6X5X3X4X<X%X,.3 = F F 8 >.&X<X{.*.9.n O.6.4.%XC...d 9X",
"9Xh 2.Q.OX{ { _ h O.{ 4.&X.Xb.L 5   < 4.%X,X,X<X3X4X4X*X|.~.W.W.W.W.~.OX*X4X4X3X<X<X<X%X,.3 = = 3 8.oX&X,.{ ..d [ | [ OX!.3.h 9X",
"9Xh 2.!.OX/ $._ r <./ ,.=X&X,.g . .  .&X,X:X=X$XoX@X|.{.|.0.:.| [ :.^.OX{.|.+X.X$X:X=X,X%Xb.a : d 8.&X=X,.[ :.w | O./ OXC.2.h 9X",
"9Xy +.!.#X_  ...c :.[ ,.&X#Xb.[ j j b.%X@X|.oXOX{.4.*.*.{ 2.o./ / X.2._ *.*.>.Q.+XoXXX@X#X.X>.` P b.#X&X>.[ :.c  . .` #X!.+.h 9X",
"9Xh 2.!.OX{ :.:.[ ,.{ 4.%X@X8.[ +.&.&.2.3.3.3.*.+.` 6.5...w.q.w.A.q.w...5.3.` +.>.2.2.3.3.3.2.+.P n.@X%X8.| >.[ >.O.X.+XW.&.h 9X",
"9Xh 6.B.oXB.W.Q.W.Q.m.[.OX.Xn.P ` ` ` ] X.] ` 2.&.n v n h ^ ` | .._ n c n v n &.&./ ..o...{ ` / P m.|.oX^.m.Q.W.Q.W.W.oXC.6.h 9X",
"9Xj &.C.%X|.m.0.8.n.W.|.+X|.b.} y h >.4.4.>.X.2./ % # # # X @ w w @ X # @ # $ ^ 2.X.>.4.4.:.h u } b.|.@X|.W.m.8.n.m.|.%XC.2.h 9X",
"9Xy { $.N./.C.:. .,.b.b.b.b.@.[ j ^ OX=X:X#X+.X.& % u u u > X @ + X w u t u % $ X.O.%X=X=XOX^ v [  .1.b.b.n.,.} :.M.Q.M.O...y 9X",
"9Xy } |  .} I  . . . .} } @.m a ..X.oX=X,X&X` ( & & ( @ w + X w w + # > $ k % @ ( { &X<X=XOX....d P  . .}  . . .$.I I  .| } t 9X",
"9Xd j.C.[.M.N.~.~.[.~.m.c.B.:.f ..o.oX*X,X&X| ` # % ( X # > d c d d w # X v % & ` { &X<X*XoXX.X.f :.W.c.m.~.[.~./.N.M.[.W.j.a 9X",
"9X< :.!.Q.~.~.[.~.W.W.m.n.Q.:.f X...@X<X,X&XX...% ( % % w @ c } } v @ w r % i $ ..X.&X<X<X@XX.X.f :.Q.N.m.Q.Q.~.[.~.!.!.!.<.e 9X",
"9Xo f j.b.n.n.b.b.b.n.b.n.N. .f ....oX<X<X&X` n % % _  . .v @ t r @ b  . .( p % n ] *X=X=XoXX.X.f @.n.n.b.b.b.n.n.n.b.b.j.b 9X9X",
"9X9X9Xa a a a a a a a a a a e > ..O.|.%X=X#X] ` % ) ( b m t > m m > t m m ( ) % ` ] oX*X%XXX....; < a a a a a t a a a a a 9X9X9X",
"9X9X9X9X9X9X9X9X9X9X9X9X9X9X9X9X{ X.|.$X=X@X| %.r ) k o @ n :.:.<.:.n @ @ k ) % ..X..X%X%X|.....9X9X9X9X9X9X9X9X9X9X9X9X9X9X9X9X",
"9X9X9X9X9X9X9X9X9X9X9X9X9X9X9X9X/ { {.|.+X|.' k r k $ n c h >.^.^.>.h c n $ k $ n [ .XXX|.^.] _ 9X9X9X9X9X9X9X9X9X9X9X9X9X9X9X9X",
"9X9X9X9X9X9X9X9X9X9X9X9X9X9X9X9Xy d P P P [ / _ & $ y o.O.u @ m m @ y X.| y $ w ` n }  ._ m d y 9X9X9X9X9X9X9X9X9X9X9X9X9X9X9X9X",
"9X9X9X9X9X9X9X9X9X9X9X9X9X9X9X9X9X9X9X9X9X9X; w _ <.8.8.4.,.8.W.0.0.c.@.n.0.,.P w ; 9X9X9X9X9X9X9X9X9X9X9X9X9X9X9X9X9X9X9X9X9X9X",
"9X9X9X9X9X9X9X9X9X9X9X9X9X9X9X9X9X9X9X9X9X9X9X9X' m.m.W.b.j.m.~.~.[.~.m.~.!.Q.' 9X9X9X9X9X9X9X9X9X9X9X9X9X9X9X9X9X9X9X9X9X9X9X9X",
"9X9X9X9X9X9X9X9X9X9X9X9X9X9X9X9X9X9X9X9X9X9X9X9Xd j.!./.!./.!.!.Q.~.~.~.~./.j.a 9X9X9X9X9X9X9X9X9X9X9X9X9X9X9X9X9X9X9X9X9X9X9X9X",
"9X9X9X9X9X9X9X9X9X9X9X9X9X9X9X9X9X9X9X9X9X9X9X9X9Xb } } } } ' } ' } } } } ' b 9X9X9X9X9X9X9X9X9X9X9X9X9X9X9X9X9X9X9X9X9X9X9X9X9X",
"9X9X9X9X9X9X9X9X9X9X9X9X9X9X9X9X9X9X9X9X9X9X9X9X9X9X9X9X9X9X9X9X9X9X9X9X9X9X9X9X9X9X9X9X9X9X9X9X9X9X9X9X9X9X9X9X9X9X9X9X9X9X9X9X"
};
