/* XPM */
static char *result[] = {
/* columns rows colors chars-per-pixel */
"64 56 216 2 ",
"   c #121E2E",
".  c #0E192A",
"X  c #251927",
"o  c #291D29",
"O  c #271B27",
"+  c #2C1C30",
"@  c #0A2334",
"#  c #0B283A",
"$  c #122634",
"%  c #192735",
"&  c #112534",
"*  c #2E232F",
"=  c #34232C",
"-  c #3B2427",
";  c #252532",
":  c #2E2934",
">  c #342531",
",  c #362934",
"<  c #3B2B36",
"1  c #3D2B3B",
"2  c #372838",
"3  c #3F3039",
"4  c #432828",
"5  c #452F3B",
"6  c #44323B",
"7  c #49343E",
"8  c #4D3233",
"9  c #553432",
"0  c #56312D",
"q  c #6C3C30",
"w  c #784234",
"e  c #0C3342",
"r  c #0E3C4D",
"t  c #163A4C",
"y  c #0F3F51",
"u  c #143F53",
"i  c #0B2E40",
"p  c #2B3947",
"a  c #273E50",
"s  c #4C3B43",
"d  c #473A48",
"f  c #543C44",
"g  c #5C3D46",
"h  c #543F49",
"j  c #543743",
"k  c #613F48",
"l  c #0F4255",
"z  c #0F4359",
"x  c #114354",
"c  c #1A4354",
"v  c #11455B",
"b  c #124B5E",
"n  c #194858",
"m  c #13505F",
"M  c #10434D",
"N  c #264956",
"B  c #23535B",
"V  c #364A53",
"C  c #124C60",
"Z  c #155463",
"A  c #1C5C64",
"S  c #155669",
"D  c #165C6D",
"F  c #1A5A67",
"G  c #165E71",
"H  c #0F4766",
"J  c #265D64",
"K  c #2C5768",
"L  c #325962",
"P  c #205E71",
"I  c #1A616C",
"U  c #1E6669",
"Y  c #196372",
"T  c #1B6A73",
"R  c #1B6B79",
"E  c #186475",
"W  c #1E737C",
"Q  c #1E7478",
"!  c #246368",
"~  c #23726A",
"^  c #2D6D72",
"/  c #236973",
"(  c #227474",
")  c #22757B",
"_  c #217A7C",
"`  c #257C75",
"'  c #327A75",
"]  c #356065",
"[  c #4D484D",
"{  c #4B4349",
"}  c #524246",
"|  c #55444A",
" . c #5B4549",
".. c #5B4B4D",
"X. c #58474B",
"o. c #5B4C55",
"O. c #584856",
"+. c #5D5156",
"@. c #485056",
"#. c #63444A",
"$. c #6A464D",
"%. c #644A4C",
"&. c #6C4B4E",
"*. c #634546",
"=. c #704D4F",
"-. c #6E524F",
";. c #654D50",
":. c #6B4F51",
">. c #604F5F",
",. c #724E51",
"<. c #645355",
"1. c #6B5354",
"2. c #6B5C5B",
"3. c #66585A",
"4. c #745454",
"5. c #7A5454",
"6. c #755659",
"7. c #775958",
"8. c #78635E",
"9. c #4E5B65",
"0. c #6A5B67",
"q. c #526A6C",
"w. c #756463",
"e. c #796564",
"r. c #7B6A65",
"t. c #7C6C6A",
"y. c #766669",
"u. c #7F706C",
"i. c #7A6971",
"p. c #66717B",
"a. c #845C59",
"s. c #815E57",
"d. c #8C635D",
"f. c #87635A",
"g. c #92695F",
"h. c #816561",
"j. c #836A65",
"k. c #846D6A",
"l. c #946C61",
"z. c #966E65",
"x. c #82726D",
"c. c #8C7D6C",
"v. c #867669",
"b. c #9B7364",
"n. c #98766A",
"m. c #847672",
"M. c #8A7B75",
"N. c #8D7F79",
"B. c #877871",
"V. c #977B75",
"C. c #A47C67",
"Z. c #835F60",
"A. c #25837E",
"S. c #288A7D",
"D. c #2A8A74",
"F. c #2D947F",
"G. c #358077",
"H. c #8E806D",
"J. c #92826D",
"K. c #9A846B",
"L. c #8F8075",
"P. c #928472",
"I. c #968972",
"U. c #968779",
"Y. c #9E9277",
"T. c #A98168",
"R. c #1F7982",
"E. c #217C82",
"W. c #797F81",
"Q. c #228185",
"!. c #278B83",
"~. c #298E84",
"^. c #22868C",
"/. c #248A8F",
"(. c #29878C",
"). c #2B9383",
"_. c #2E9981",
"`. c #2E9C8A",
"'. c #329A84",
"]. c #248C91",
"[. c #34A686",
"{. c #36A986",
"}. c #37B18A",
"|. c #39B389",
" X c #77828A",
".X c #4EA697",
"XX c #9C8E86",
"oX c #978881",
"OX c #9D9088",
"+X c #818C94",
"@X c #A4968C",
"#X c #AA9D93",
"$X c #A69A90",
"%X c #ADA196",
"&X c #AFA499",
"*X c #B2A59A",
"=X c #B5AA9E",
"-X c #929BA9",
";X c #B8ABA4",
":X c #BCB2A5",
">X c #BFB6A9",
",X c #AAB1BB",
"<X c #92A2A9",
"1X c #C5BCAC",
"2X c #C5BBAD",
"3X c #CAC2B1",
"4X c #D3CABB",
"5X c #B4BCCA",
"6X c #AAB9C8",
"7X c #BED1DE",
"8X c #DBD3C3",
"9X c #C5CAD5",
"0X c #E2DACA",
"qX c #E9E1D1",
"wX c #D3DCEB",
"eX c None",
/* pixels */
"eXeXeXeXeXeXeXeXeXeXeXeXeXeXeXeXeXeXeXeXeXeXeXeXeXeXeXeXeXeXeXeXeXeXeXeXeXeXeXeXeXeXeXeXeXeXeXeXeXeXeXeXeXeXeXeXeXeXeXeXeXeXeXeX",
"eXeXeXeXeXeXeXeXeXeXeXeXeXeXeXeXeXeXeXeXeXeXeXeXeXeXeXeXeX5.a.a.a.a.5.eXeXeXeXeXeXeXeXeXeXeXeXeXeXeXeXeXeXeXeXeXeXeXeXeXeXeXeXeX",
"eXeXeXeXeXeXeXeXeXeXeXeXeXeXeXeXeXeXeXeXeXeXeXeXeXeXeXeXeXa.b.C.C.C.a.eXeXeXeXeXeXeXeXeXeXeXeXeXeXeXeXeXeXeXeXeXeXeXeXeXeXeXeXeX",
"eXeXeXeXeXeXeXeXeXeXeXeXeXeXeXeXeXeXeXeXeXeXeXeXeXeXeXeXeXa.z.l.l.b.7.eXeXeXeXeXeXeXeXeXeXeXeXeXeXeXeXeXeXeXeXeXeXeXeXeXeXeXeXeX",
"eXeXeXeXeXeXeXeXeXeXeXeXeXeXeXeXeXeXeXeXeXeXeXeXeXeXeXeXt 4.l.d.a.l.6.D eXeXeXeXeXeXeXeXeXeXeXeXeXeXeXeXeXeXeXeXeXeXeXeXeXeXeXeX",
"eXeXeXeXeXeXeXeXeXeXeXeXeXeXeXeXeXeXeXeXeXeXeXeXeXeXeXR n 4.l.d.5.l.6.^ ).eXeXeXeXeXeXeXeXeXeXeXeXeXeXeXeXeXeXeXeXeXeXeXeXeXeXeX",
"eXeXeXeXeXeXeXeXeXeXeXeXeXeXeXeXeXeXeXeXeXeXeXeXeXeX_ ^.c $.l.d.a.l.6./ |._.eXeXeXeXeXeXeXeXeXeXeXeXeXeXeXeXeXeXeXeXeXeXeXeXeXeX",
"eXeXeXeXeXeXeXeXeXeXeXeXeXeXeXeXeXeXeXeXeXeXeXeXeXW /.D t :.h.;X;Xz.7.P _.|._.eXeXeXeXeXeXeXeXeXeXeXeXeXeXeXeXeXeXeXeXeXeXeXeXeX",
"eXeXeXeXeXeXeXeXeXeXeXeXeXeXeXeXeXeXeXeXeXeXeXeXx Q.Y T n ..t.6X9XV.,.R._.F.}.T eXeXeXeXeXeXeXeXeXeXeXeXeXeXeXeXeXeXeXeXeXeXeXeX",
"eXeXeXeXeXeXeXeXeXeXeXeXeXeXeXeXeXeXeXeXeXeXeXQ C Z W ^.L >.0. X5X2X;X-X.X'.F.W _.eXeXeXeXeXeXeXeXeXeXeXeXeXeXeXeXeXeXeXeXeXeXeX",
"eXeXeXeXeXeXeXeXeXeXeXeXeXeXeXeXeXeXeXeXeXeXW ^.C Q /.G 9.q.W. X6XwXwX7X'.}.F._ |.F.eXeXeXeXeXeXeXeXeXeXeXeXeXeXeXeXeXeXeXeXeXeX",
"eXeXeXeXeXeXeXeXeXeXeXeXeXeXeXeXeXeXeXeXeX_ ].T W /.Y R K >.i. X5X;X-X.X).~.|._._.|._.eXeXeXeXeXeXeXeXeXeXeXeXeXeXeXeXeXeXeXeXeX",
"eXeXeXeXeXeXeXeXeXeXeXeXeXeXeXeXeXeXeXeXW /.Y Q /.Y Q ^.u 5.z.+X5Xz.,.R..XE.~.|.F.[.|.F.eXeXeXeXeXeXeXeXeXeXeXeXeXeXeXeXeXeXeXeX",
"eXeXeXeXeXeXeXeXeXeXeXeXeXeXeXeXeXeXeXW /.D Q /.D Q /.G t 6.l. X5XV.,.K E.{.F.(.|.F.F.{.T eXeXeXeXeXeXeXeXeXeXeXeXeXeXeXeXeXeXeX",
"eXeXeXeXeXeXeXeXeXeXeXeXeXeXeXeXeXeXW /.D l Q.Y l R.Y T n 5.z.+X5Xz.6.R.'.(.{./ ~.[.Q S.E.).eXeXeXeXeXeXeXeXeXeXeXeXeXeXeXeXeXeX",
"eXeXeXeXeXeXeXeXeXeXeXeXeXeXeXeXeXW /.Y T b S R C S W ^.c $.4.p.-Xz.6.R.{.'._ E._._ E.S._ [.R eXeXeXeXeXeXeXeXeXeXeXeXeXeXeXeXeX",
"eXeXeXeXeXeXeXeXeXeXeXeXeXeXeXeXx Q.Y W ^.b Q ^.b R /.Y t 4.l.f.l.z.6.G ~.|.).W }.F.W }._.F._ A.eXeXeXeXeXeXeXeXeXeXeXeXeXeXeXeX",
"eXeXeXeXeXeXeXeXeXeXeXeXeXeXeXY b m S Q.Y W ^.Y Q /.Y T n 4.z.C.C.C.6.^ ).!.|._.~.|._.F.{.) R _ eXeXeXeXeXeXeXeXeXeXeXeXeXeXeXeX",
"N J J B ! B J J B ! B K J B J B ! B J B ! (.Y Q ].Y W ^.c 4.b.C.C.b.6./ }._.~.|.A.!.|.G.^ ' ^ ' ^ ' ^ ' ' ^ G.^ ' ' ^ G.^ ' ' ] ",
"4.h.j.f.j.f.k.k.j.k.h.h.j.h.h.h.j.h.h.h.h.V Q /.D Q /.D t 4.z.C.C.b.7.Y !.}.F.!.A.W q.n.n.K.K.K.n.K.K.K.K.K.K.n.K.K.K.K.K.K.K.n.",
"g $.=. .%.=.5.5.5.=.5.=.,.$.&.&.#.$.*.g g p E.D x Q.Y T n 4.l.b.z.b.7.) ).~.[.R R !.@.s.a.d.a.d.g.g.g.l.l.z.l.b.b.b.l.a.a.l.l.5.",
"2 5 2 < < 1 2 5 5 2 2 5 5 < 5 1 < 2 < 2 2 t S / b S W /.c 4.b.b.b.b.5./ }._.A.R.)._ N s f  .f f f | } f f g h } f f g h s h h j ",
"t B F n A n u u n U n x u c A u u u A n u v Q ^.b R /.G t g a.l.z.a.k G ~.|.).W }.F.T n m ` m ! A ( ! A A ! ` ! A J U ` ! ~ ~ c ",
"x E.Q.T ].T Q.E.T ].Y Q.Q.Y Q.T ].T Q.F M W /.Y W ].G R c 1 g &.k k p / ).~.|._.~.|._.A ` }.S.|.S.[.S.[.[.S.|.S.[.[.S.|.!.[.[.G ",
"# x v y z l E Y l b l Y Y l z m R C v r A /.Y Q /.Y Q ^.u 2 j 7 j j 2 / }._.!.|.F.!.|.~ D W W `.R R.R ).).R R.R ).~.R R.E R.G H ",
"r I Y Z R Z z z m R m z l Z E l v x Y b Z Y Q /.D Q ].S $ 2 k j j k 5 t E.|.).!.[.R ~.~ T ~.R E.R ~.E.R R ) `.W R.R.W `._ ).A.S ",
"x E.E.T ].Y Q.Q.Y ].T E.Q.T Q.Y Q.I Q.A r z Q.G z Q.S @ % 5 2 < < 2 d ; r !.[.R E.E._.Z ` [.S.|.S.[.S.[.[.!.|.S.'.[.S.|.S.[.[.D ",
"# y l l b l Y Y x b l Y Y l l r z l b x T b S T C b @   d N c u u u V p $ r ) E.~.) }.D.I R.W `._ R R ~.).R R.R ~.~.R R.E W G H ",
"M I T m E C z z Z R m v z Z T M z l b Q ^.b Q /.l @   V V T !.Y E !.T L d @ r T }._.~.|.D.T R E.R ).) R.R.W `.) W R.W `.R.~.!.S ",
"M T T z z l Y Y Z R Z Z m Z Y I E.m Q /.Y Q /.S @   { L ~ l M r r M l U L { $ r A.|._ !.{.G U [.!.~.) ( ( ) `._ !.~.E R Y ).~.S ",
"# e e # @ # e # e e # # # # e r x W /.Y Q /.S @   [ m.N M a a a V a u u N m.[ $ y S.A.E.A.E.D.I Z x r # # r z y y z i # i z z r ",
"eX# % ; ; ; # &   $ % ; ; % $ $ A /.S I ].S @   [ XX;X X9.1.h.h.j.h.6.@.W.:XXX[ $ r G `.).) }.~ # @ % ; ; % @     & ; ; ; $ $ eX",
"eX3 < 6 7 6 1 6 3 6 5 7 7 5 6 < A Y m S S @   [ XX1X3X3XM.;.* 3.2.> ;.m.2X3X1XXX[ $ r _ |._.!.( p 5 5 6 6 6 6 6 3 3 6 6 7 < 3 eX",
"eX*.*.4.&.=.=.,.=.=.-.-.=.=.4.*.c W R r @   [ XX1X3X3X3XM.X...r.t.X...M.3X3X3X1XXX[ $ r !.{.R G V ,.,.=.-.-.=.,.4.=.=.&.,.%. .eX",
"eX6 7 f ;.<.X.X. . ...<.1.<...V Q /.Z @   [ XX2X;X:X8X3Xu...{ ..o.{  .v.4X8X2X=X2XXX[ $ r Q E.Q p ;.<.1.<.;. . .|  .;.+.f 6 6 eX",
"eX3 j w.%Xx.1.;.} 1.8.#X:X%X8.] ].Z @   [ OX3X3X:X1X0X4Xt.;.X.+.o.X.;.x.4X8X2X:X3X2XXX[ $ r R ( p 8.%X:X$X8.-.} %.1.v.%Xr.j 6 eX",
"eX7 5.L.*X1.e.<.7 r.4.u.1X*Xw.] S @   [ XX1X3X8X8XqX0X2XU.c.c.H.c.H.v.Y.2X0XqX8X8X3X2XXX[ $ r l : y.*X1Xu.4.w.7 3.e.1.*XN.5.7 eX",
"eX7 f.L.#X ...h 3 <.| w.:X&Xr.p # . { OX1X2X3X:X=X2X:X*X%Xc.k.8.r.r.XX=X*X:X2X;X:X1X3X1XXX[ $ $ : t.&X:Xr.| +., o.X. .#XN.s.7 eX",
"eX7 6.L.%X..w.<.6 r.%.r.1X;Xt.{ + > y.>X2X=X:X*X#XoXr.r.t.w.<.f f <.r.u.w.r.M.@X*X:X:X1X2XoXo.5 { r.:X>Xr.%.t.3 3.2...%XL.5.7 eX",
"eX7 4.N.*XX.X.<.} 3.X.w.=X#Xu.;.:.,.h.P.V.V.V.V.e.%.d.f.*.g.f.f.s.s.g.%.d.d.%.7.V.V.V.V.V.V.h.,...u.%X=X8.| 3.{ 3.....*XL.5.7 eX",
"eX7 f.M.@X8.j.x.8.B.8.v.&X%Xu.X.,.,.:.,.a.,.$.,.7.*.=.5.*.5.a.l.g.s.5.*.4.-.*.s.=.=.=.a.,.,.,.,.X.x.%X&XB.8.B.8.x.j.8.$XM.f.7 eX",
"eX7 f.M.*XU.H.H.H.H.H.@X#XXXt...j f %.%.k #.$.a.&.6 = = = , < 6 6 6 > = = * 5 &.f.%.k #.%.;.f j ..t.OX#X@XH.H.H.J.c.U.*XM.f.7 eX",
"eX7 -.x.#X@XL.r.2.u.N.U.XXU.r.<.5 d V.#X#XOX6.5.8 - - = > O X * * X O > = - - 5 4.4.OX#X#XL.5 6 <.w.U.OXY.M.u.2.r.L.$X#Xx.,.6 eX",
"eX1  .X.o.+.+.+.X.+.+.+.o.+.| d  .;.*X2X3X:X;.#.* 4 8 3 3 = X O O X = 6 < 0 4 * #.;.:X3X3X*X&. .d | o.o.o.+...X.o.+.+.o.X. .1 eX",
"eX6 0.t.c.y.0.u.v.c.v.r.w.x.<.d &.1.OX:X3X:X;.g = - 0 O ; O = < < > O O O 9 4 - k ;.;X3X>XOX-.-.d <.k.w.t.v.c.v.m.0.y.c.r.0.1 eX",
"eX1 y.V.I.M.L.Y.I.U.J.k.y.v.2.d -.1.&X3X3X;X:.#.- 8 0 X X < } | | } < X X 9 4 = $.:.;X3X3X%X1.-.d 2.x.i.x.V.I.I.Y.c.M.I.P.t.6 eX",
"eX+ #.M.P.U.P.I.U.P.P.P.M.U.w.d -.-.%X3X3X;X;.#.- 0 8 } } > , } } , , } { 9 0 -  .;.2X3X3X%X-.-.d w.I.L.P.P.P.P.U.P.U.P.M.$.eXeX",
"eXeXp O.o.O.o.o.O.O.o.o.o.o.d 1 %.1.@X2X3X;X;.g - q *.<.<.s * , , * s <.<.*.q - k #.;X1X>X$X1.%.p d o.o.O.o.o.O.o.o.O.O.O.p eXeX",
"eXeXeXeXeXeXeXeXeXeXeXeXeXeXeX+ &.-.XX%X1X&X%.$.4 w 9 < , , } <.<.} , , , 9 w 4 $.:.XX=X%XOX-.&.+ eXeXeXeXeXeXeXeXeXeXeXeXeXeXeX",
"eXeXeXeXeXeXeXeXeXeXeXeXeXeXeXeX%.&.@X*X:X#X%.g - q 8 > * [ x.m.m.m.[ * = 8 q - *.;.#X*X*X@X&.#.eXeXeXeXeXeXeXeXeXeXeXeXeXeXeXeX",
"eXeXeXeXeXeXeXeXeXeXeXeXeXeXeXeXf f w.x.B.u...g - - 2 3.2.2 6 t.y.3 2 2.3., 4 - g #.M.M.t.w.g f eXeXeXeXeXeXeXeXeXeXeXeXeXeXeXeX",
"eXeXeXeXeXeXeXeXeXeXeXeXeXeXeXeX2 2 2 1 2 2 s j 6 } X.<.<.| } ....X.X.O.+...} 6 j 5 1 p 2 2 > 5 eXeXeXeXeXeXeXeXeXeXeXeXeXeXeXeX",
"eXeXeXeXeXeXeXeXeXeXeXeXeXeXeXeXeXeXeXeXeXeXeXeXo.x.c.c.x.i.c.Y.I.I.L.i.U.I.B.>.eXeXeXeXeXeXeXeXeXeXeXeXeXeXeXeXeXeXeXeXeXeXeXeX",
"eXeXeXeXeXeXeXeXeXeXeXeXeXeXeXeXeXeXeXeXeXeXeXeXs m.c.c.m.m.c.n.H.Y.Y.H.P.V.B.d eXeXeXeXeXeXeXeXeXeXeXeXeXeXeXeXeXeXeXeXeXeXeXeX",
"eXeXeXeXeXeXeXeXeXeXeXeXeXeXeXeXeXeXeXeXeXeXeXeX2 >.i.x.x.t.k.k.u.u.u.u.k.k.>.< eXeXeXeXeXeXeXeXeXeXeXeXeXeXeXeXeXeXeXeXeXeXeXeX",
"eXeXeXeXeXeXeXeXeXeXeXeXeXeXeXeXeXeXeXeXeXeXeXeXeX1 d 1 1 d 1 p p 3 1 1 5 p 2 eXeXeXeXeXeXeXeXeXeXeXeXeXeXeXeXeXeXeXeXeXeXeXeXeX"
};
