/* XPM */
static char *_1985579c74f4439bdb2d770a3af8459tGKOkDpEby0QICFB[] = {
/* columns rows colors chars-per-pixel */
"64 44 198 2 ",
"   c None",
".  c #4B741F",
"X  c #507C22",
"o  c #6E754E",
"O  c #5A8526",
"+  c #648A2B",
"@  c #67942C",
"#  c #749A2D",
"$  c #7C9E2C",
"%  c #739528",
"&  c #668733",
"*  c #788932",
"=  c #6F9930",
"-  c #759B35",
";  c #7E9A32",
":  c #7CA42B",
">  c #7FA82B",
",  c #7AA138",
"<  c #758846",
"1  c #7C9446",
"2  c #7F8764",
"3  c #83933B",
"4  c #879C3B",
"5  c #929A3B",
"6  c #85AD2E",
"7  c #8AB62F",
"8  c #84A434",
"9  c #85A933",
"0  c #8BAC35",
"q  c #84A23B",
"w  c #8BA33E",
"e  c #8DAC3B",
"r  c #8CA237",
"t  c #91A33F",
"y  c #93AD3E",
"u  c #9FA33D",
"i  c #8DB434",
"p  c #8FBA33",
"a  c #91B537",
"s  c #93BB36",
"d  c #95B43C",
"f  c #98B53F",
"g  c #97BD39",
"h  c #9CBC3F",
"j  c #9DC43B",
"k  c #A0C63C",
"l  c #839B43",
"z  c #8B9749",
"x  c #919E46",
"c  c #848D57",
"v  c #8CA545",
"b  c #8EAA42",
"n  c #8DA14E",
"m  c #93A642",
"M  c #99A543",
"N  c #93AB42",
"B  c #98AF41",
"V  c #92A54C",
"C  c #94AB4C",
"Z  c #9BAB4C",
"A  c #98A548",
"S  c #96B143",
"D  c #9BB343",
"F  c #9DBB42",
"G  c #9EB44C",
"H  c #93A650",
"J  c #9AA453",
"K  c #9AA25B",
"L  c #9BAC58",
"P  c #9DB45A",
"I  c #A4AC48",
"U  c #A2B446",
"Y  c #A3BC45",
"T  c #A3B44A",
"R  c #AAB44D",
"E  c #A5BB4A",
"W  c #ABBC4B",
"Q  c #AAB446",
"!  c #B5BC4D",
"~  c #A5AD57",
"^  c #A1AB5B",
"/  c #A9AE56",
"(  c #A4B152",
")  c #ADB455",
"_  c #AEBB54",
"`  c #ABB25C",
"'  c #A8BA58",
"]  c #B4BA53",
"[  c #B3B65B",
"{  c #B3BC5A",
"}  c #B9BE56",
"|  c #83846E",
" . c #848C69",
".. c #858D63",
"X. c #8A9A65",
"o. c #868770",
"O. c #8A8D72",
"+. c #949C78",
"@. c #92A264",
"#. c #9FAC68",
"$. c #9EB36A",
"%. c #9CBE69",
"&. c #9DA673",
"*. c #99BC78",
"=. c #A4A967",
"-. c #A5B266",
";. c #AAB866",
":. c #B1BB62",
">. c #B5BB69",
",. c #B5B96D",
"<. c #AAAC79",
"1. c #A4B572",
"2. c #B1BD75",
"3. c #B8BE7B",
"4. c #A3C443",
"5. c #A9C647",
"6. c #A9CC47",
"7. c #A3C34A",
"8. c #ABC44B",
"9. c #ADCC4B",
"0. c #A7C945",
"q. c #B1CC4D",
"w. c #BDC54E",
"e. c #B9D74E",
"r. c #B4D549",
"t. c #A5C256",
"y. c #B4C555",
"u. c #BBC255",
"i. c #B5CD53",
"p. c #B8C857",
"a. c #B5C45C",
"s. c #BCC45C",
"d. c #BBCC5D",
"f. c #B2C85B",
"g. c #ABD350",
"h. c #B6D151",
"j. c #BCD553",
"k. c #BDD852",
"l. c #BBD55B",
"z. c #9FC069",
"x. c #9ACE7B",
"c. c #A8C76B",
"v. c #B4C066",
"b. c #BAC869",
"n. c #A4D165",
"m. c #BCD864",
"M. c #ACC571",
"N. c #BAC573",
"B. c #C3CD5D",
"V. c #C5CA5C",
"C. c #C2D35B",
"Z. c #C9D75F",
"A. c #C5D95B",
"S. c #C1D856",
"D. c #C3CC62",
"F. c #C0C768",
"G. c #C5CA69",
"H. c #C3D462",
"J. c #CCD562",
"K. c #CCD26C",
"L. c #D2D66B",
"P. c #D6DA6D",
"I. c #C5CA72",
"U. c #C5C874",
"Y. c #C9D77F",
"T. c #CAD474",
"R. c #D2DB75",
"E. c #D2DF7E",
"W. c #DEE27C",
"Q. c #79BC8D",
"!. c #73BFAE",
"~. c #6DC198",
"^. c #76C999",
"/. c #78CDAC",
"(. c #5FC2C2",
"). c #63C9C4",
"_. c #78CEC9",
"`. c #7DC9D7",
"'. c #78CFE3",
"]. c #6DD0E6",
"[. c #98B78A",
"{. c #94B59A",
"}. c #A2A683",
"|. c #A3BD9A",
" X c #88CF87",
".X c #9AC38C",
"XX c #98CA90",
"oX c #82C7BD",
"OX c #99C5BF",
"+X c #C9CD84",
"@X c #CFD580",
"#X c #D1D48E",
"$X c #D5DC88",
"%X c #DBE185",
"&X c #D6E287",
"*X c #E3E890",
"=X c #8AC9CA",
"-X c #8CCAD6",
/* pixels */
"                                                                                                                                ",
"                                                                                                                                ",
"                                                                                                                                ",
"                                                                                                                                ",
"                                      ) s.V.V.} )                                                                               ",
"                                    ( ] s.F.F.b.:.`                                                                             ",
"                                    y.u.{ >.3.3.2.;.J                                                                           ",
"                                  y 8.y.` 1.|.|.[.*.^ T ) ) )                                                                   ",
"                                ; e 4.t.-.[.=X=X/.Q.z.u.d.B.V.V.v./                                                             ",
"                                9 a k 7.1.{.-X'.(.~.c.B.A.J.J.Z.V.) z                                                           ",
"                              # 7 s j F -.{.`.].(.^.n.S.S.A.A.C.p.R 3                                                           ",
"                              $ p j j 7.$.[./._./. Xn.e.k.k.S.S.i.W 3                                                           ",
"                              : d j 6.g.7.z..XXXx.z.g.r.r.e.e.e.h.8.m                                                           ",
"                              8 F 9.m.m.b.c.M.c.t.7.4.4.0.6.g.g.9.8.N                                                           ",
"                            * t 8.H.&X&X&XY.N.;.C v b b S F F 4.F d                                                             ",
"                            3 M u.K.%X*X&X&XT.c.L H H H C C D C e r                                                             ",
"                            5 I y.V.P.W.W.W.P.L.I.>.>.,.-.^ K x 3                                                               ",
"                            M I Q V.V.Z.J.P.L.L.K.I.I.,.,.=.K z                                                                 ",
"                            Z T Q 5.! ! u.w.} ] ] { [ [ / / I                                                                   ",
"                            Z T 4.Q Q Q ! ! I u                                                                                 ",
"                            A G Y Y D E V.V./                                                                                   ",
"                            m D f f D W G.K.>.                                                                                  ",
"                          * N y 9 9 f 8.H.P.U.U.                                                                                ",
"  K ~ (                   3 B d $ 8 e 8.H.R.#X+X                                                                                ",
"  ^ a.a._ D N       t w 5 N G D r 8 8 D f.T.&X#X}.                                                                              ",
"    v.d.p.8.Y D D S B y B D U Y f 0 8 b ' b.&X#X<.X.                                                                            ",
"    ) p.d.l.h.9.0.4.f d 4.Y U E 4.Y q q Z v.Y.+X=.c o                                                                           ",
"      ) d.l.l.j.h.9.f f 4.4.F U 8.F q v Z :.I.N.#.c o                                                                           ",
"        ] a.D.H.C.i.U f j j h D D b ; z ( :.:.` J z <                                                                           ",
"          ) s.D.H.f.B a s g g s y w l V ' f.( C v l <                                                                           ",
"              R ] R M 4 9 6 s s a e b F 9.y.N q , - &                                                                           ",
"                    5 4 $ 6 7 s i a g F 4.F , # @ @                                                                             ",
"                          % > 6 7 p a i i 9 - + O X                                                                             ",
"                            $ 6 a s s i 8 - @ O .                                                                               ",
"                            8 y 4.5.Y y q - @ O                                                                                 ",
"                            f Y i.q.7.C v l 1 <                                                                                 ",
"                          e E q.j.e.8.T L @.@.X...2                                                                             ",
"                          8 F 5.9.5.Y L =.&.&.+. . .O.                                                                          ",
"                          % 9 0 0 0 q n &.}.}.+.O.| o.o.                                                                        ",
"                                                  o.                                                                            ",
"                                                                                                                                ",
"                                                                                                                                ",
"                                                                                                                                ",
"                                                                                                                                "
};
