/* XPM */
static char *_9b583777e454f72caf37b359d306ce6jMqgFCiIkeT0dpEi[] = {
/* columns rows colors chars-per-pixel */
"64 64 89 1 ",
"  c #755338",
". c #765338",
"X c #765438",
"o c #745237",
"O c #6F4E34",
"+ c #674830",
"@ c #5D402B",
"# c #573B29",
"$ c #6F4E35",
"% c #765439",
"& c #745238",
"* c #775439",
"= c #755238",
"- c #674831",
"; c #745337",
": c #755438",
"> c #735137",
", c #6D4D34",
"< c #654730",
"1 c #5C3F2B",
"2 c #573B28",
"3 c #664730",
"4 c #725136",
"5 c #6E4E34",
"6 c #6E4D34",
"7 c #704E35",
"8 c #714F36",
"9 c #704F35",
"0 c #715036",
"q c #745338",
"w c #735237",
"e c #725137",
"r c #6E4E35",
"t c #694A32",
"y c #62442E",
"u c #5A3E2A",
"i c #553A28",
"p c #563A28",
"a c #694A31",
"s c #694932",
"d c #6C4C33",
"f c #725037",
"g c #705036",
"h c #6C4D34",
"j c #684932",
"k c #63452F",
"l c #5D402C",
"z c #543927",
"x c #5D412C",
"c c #62452E",
"v c #61432E",
"b c #6D4C34",
"n c #704F36",
"m c #5B3F2B",
"M c #60432E",
"N c #533926",
"B c #523726",
"V c #573C29",
"C c #563B29",
"Z c #583D29",
"A c #5C402C",
"S c #6B4B33",
"D c #583C29",
"F c #583C2A",
"G c #6A4B32",
"H c #705035",
"J c #533826",
"K c #523826",
"L c #533927",
"P c #563B28",
"I c #5E412C",
"U c #5C402B",
"Y c #5D412B",
"T c #664830",
"R c #684831",
"E c #5E412B",
"W c #513725",
"Q c #553927",
"! c #593D29",
"~ c #6A4A32",
"^ c #573C28",
"/ c #6F4E36",
"( c #664731",
") c #62452F",
"_ c #775438",
"` c #6C4C34",
"' c #6A4B33",
"] c #583D2A",
"[ c white",
/* pixels */
"                                          ..XoO+@##@+OoX..      ",
"                                          .XXo$+@##@+OoXX.      ",
"..............        ....                XX%&$+@##@+$&%%%......",
"...............      ......               XX*&$+@##@+$&*%%X.....",
"XXXXXXXXXXXXXX..    ..XXXXXX              XX*=$-@##@-$=**%XXXXXX",
"oooooooooooooooo=  =ooooooo;               : >,<12213,4=&&oooooo",
"OOOOOOOOOO556$78>oo>87$55$90>&            qwertyuipuya,$$$OOOOOO",
"++++++++++333-sd9ff9ds-33-sd9>            wghjkl#zz#xc3-++++++++",
"@@@@@@@@@@@11xv3bnnb3vlmmlv3d0;X        X;0d3Mm#NBBzVu1@@@@@@@@@",
"############CZAkS$$SkADppFAcGH;X        X;HGc1VzJKKLiP2#########",
"############CZAkS$$SkADppFAcGH;X        X;HGcADPPPP222##########",
"@@@@@@@@@@@11xv3bnnb3vlmmlv3d0;X        X;0d3vIU@YY@@@@@@@@@@@@@",
"++++++++++333-sd9ff9ds-33-sd9>            >9dt-T+---++++++++++++",
"OOOOOOOOOO566$90>oo>09$55$90>&            &>09$5OOOOOOOOOOOOOOOO",
"ooooooooooooooo;    ;oooooo;                ;ooooooooooooooooooo",
"XXXXXXXXXXXXXXXX    XXXXXXXX                XXXXXXXXXXXXXXXXXXXX",
"...............      ......                  ...................",
"..............        ....                    ..................",
"                                                                ",
"                                                                ",
"                    XXXX                                        ",
"                    ;;;;                                        ",
"..............XXX qw0HH0wq XXX        ....                    ..",
".............XXXX:wgdGGdgw:XXXX      ......                  ...",
"XXXXXXXXXXXXXX%** eh3cc3he **%XX    XXXXXXXX                XXXX",
"oooooooooooooo&&=>rjM11Mjr>=&&o;    ;oooooo;                ;ooo",
"OOOOOOOOOOOOO$$$$,tkm##mkt,$$$90>oo>09$55$90>&            &>09$6",
"++++----++++++++-3yl#LL#ly3++Rtd9ff9ds-33-sd9>            >9ds-3",
"@@@@@EE@@@@@@@@@@1u#LWWL#u1@@Iv3bnnb3vlmmlv3d0;X        X;0d3Mxm",
"V#22222222#######2pQNKKNQp2##!AkS$$SkADppFAcGH;X        Xo9~yAZP",
"V^PQNKKNQp2#######22222222##CZAkS$$SkADppFAcGH;X        Xo9~yAZP",
"xUu#NWWL#u1@@@@@@@@@@EE@@@@11xv3bnnb3vlmmlv3d0;X        X;0d3Mxm",
"-3yl#LL#ly3-++++++++----++333-sd9ff9ds-33-sd9>            >9ds-3",
"/,tkm##mkt,$$$$OOOOOOOOOOO566$90>oo>09$55$90>&            &>09$6",
"=>$sv11Mjr>=&&ooooooooooooooooo;    ;oooooo;                ;ooo",
"*.e,(k)3he **%XXXXXXXXXXXXXXXXXX    XXXXXXXX                XXXX",
"_Xwg`'GdHw:XXXX................      ......                  ...",
"X ;w0gH0wq XXX................        ....                    ..",
"   q;;;;                                                        ",
"    XXXX                                                        ",
"                                                                ",
"                                                                ",
"..........                ......................................",
"...........              .......................................",
"XXXXXXXXXXXX            XXXXXXXXXXXXXXXXXXXXXXXXXXXXXXXXXXXXXXXX",
"ooooooooooo;            ;ooooooooooooooooooooooooooooooooooooooo",
"OOOOOO566$90>&        &>09$665OOOOOOOOOOOOOOOOOOOOOOOOOOOOOOOOOO",
"++++++333-sd9>        >9ds-333++++++++++++++++++----++++++++++++",
"@@@@@@@11xv3d0;X    X;0d3vx11@@@@@@@@@@@@@@@@@@@@EE@@@@@@@@@@@@@",
"########C]AcGH;X    X;HGcA]C##################22222222##########",
"########C]AcGH;X    X;HGcA]C#################2pQNKKNQp2#########",
"@@@@@@@11xv3d0;X    X;0d3vx11@@@@@@@@@@@@@@@@1u#LWWL#u1@@@@@@@@@",
"++++++333-sd9>        >9ds-333++++++++++++++-3yl#LL#ly3-++++++++",
"OOOOOO566$90>&        &>09$665OOOOOOOOOOO$$$$,tkm##mkt,$$$$OOOOO",
"ooooooooooo;            ;ooooooooooooooooo&&=>rjM11Mjr>=&&oooooo",
"XXXXXXXXXXXX            XXXXXXXXXXXXXXXXXX%** eh3cc3he **%XXXXXX",
"...........              ................XXXX:wgdGGdgw:XXXX.....",
"..........                ................XXX qw0HH0wq XXX......",
"                                                ;;;;            ",
"                                                XXXX            ",
"                                                                ",
"                                                                ",
"                                                                ",
"                                                                "
};
