/* XPM */
static char *_e5783dd455f41b7b03440c1f328cf51Pk9YR8QwFPULbA6h[] = {
/* columns rows colors chars-per-pixel */
"64 64 197 2 ",
"   c None",
".  c #0F241C",
"X  c #10251E",
"o  c #122622",
"O  c #192625",
"+  c #132A24",
"@  c #1C2823",
"#  c #14252B",
"$  c #1D262B",
"%  c #162D2A",
"&  c #182E2E",
"*  c #183825",
"=  c #15332C",
"-  c #13382E",
";  c #162535",
":  c #172E30",
">  c #192E32",
",  c #19253C",
"<  c #17243A",
"1  c #173630",
"2  c #1A3334",
"3  c #163932",
"4  c #193B36",
"5  c #1D363A",
"6  c #1D3B3D",
"7  c #29292F",
"8  c #22272C",
"9  c #312E2C",
"0  c #2B2834",
"q  c #21273F",
"w  c #2B273A",
"e  c #342B36",
"r  c #3B2C3B",
"t  c #473436",
"y  c #4E353C",
"u  c #51353E",
"i  c #59383F",
"p  c #57393D",
"a  c #134635",
"s  c #15463B",
"d  c #1B423D",
"f  c #1B4136",
"g  c #12513A",
"h  c #254C3F",
"j  c #295D32",
"k  c #1D2444",
"l  c #1E244F",
"z  c #1E2C4C",
"x  c #1E3F40",
"c  c #1F2451",
"v  c #1D215E",
"b  c #22244E",
"n  c #282A49",
"m  c #30284B",
"M  c #232553",
"N  c #23245D",
"B  c #2B275B",
"V  c #342A58",
"C  c #392E59",
"Z  c #223B54",
"A  c #3F325A",
"S  c #4D3342",
"D  c #4F3840",
"F  c #553747",
"G  c #583643",
"H  c #5F3B43",
"J  c #4B3352",
"K  c #40335A",
"L  c #543853",
"P  c #663D4D",
"I  c #6C3E49",
"U  c #673C46",
"Y  c #1E4442",
"T  c #1E4B46",
"R  c #1F4E48",
"E  c #164A40",
"W  c #1B5445",
"Q  c #1E534B",
"!  c #165A4A",
"~  c #1D5A4D",
"^  c #155346",
"/  c #1C5C52",
"(  c #21474F",
")  c #204E49",
"_  c #225147",
"`  c #205B40",
"'  c #20514A",
"]  c #245B49",
"[  c #1D634E",
"{  c #15694B",
"}  c #15704C",
"|  c #1B6355",
" . c #1C6B54",
".. c #1A6659",
"X. c #1A6B5B",
"o. c #176C5F",
"O. c #1C7456",
"+. c #1A7957",
"@. c #1A735D",
"#. c #1B7C5C",
"$. c #296247",
"%. c #25664C",
"&. c #2B6E4B",
"*. c #326B42",
"=. c #2E724A",
"-. c #2E784D",
";. c #317146",
":. c #377E46",
">. c #317549",
",. c #307B4C",
"<. c #21775A",
"1. c #247755",
"2. c #176F60",
"3. c #167463",
"4. c #187662",
"5. c #177B64",
"6. c #197B63",
"7. c #694446",
"8. c #764549",
"9. c #774849",
"0. c #7A494B",
"q. c #634556",
"w. c #684856",
"e. c #744A50",
"r. c #834E4C",
"t. c #8A554D",
"y. c #82514F",
"u. c #935C4F",
"i. c #8F5C51",
"p. c #945D50",
"a. c #976050",
"s. c #996150",
"d. c #1B835D",
"f. c #1A8B5F",
"g. c #1E925A",
"h. c #30864F",
"j. c #398D4C",
"k. c #388849",
"l. c #3F9A4C",
"z. c #23855C",
"x. c #2B8C5A",
"c. c #288C5B",
"v. c #318D51",
"b. c #2F9255",
"n. c #25935D",
"m. c #2C935A",
"M. c #2C9C5C",
"N. c #269C5F",
"B. c #339656",
"V. c #369C56",
"C. c #3B9E53",
"Z. c #319359",
"A. c #309C5A",
"S. c #2CA55D",
"D. c #2DA95D",
"F. c #34A356",
"G. c #3CA254",
"H. c #3BAD55",
"J. c #30A75C",
"K. c #32AA5A",
"L. c #3DB155",
"P. c #178365",
"I. c #198464",
"U. c #178D67",
"Y. c #198B64",
"T. c #188C68",
"R. c #179267",
"E. c #1A9365",
"W. c #199B67",
"Q. c #179468",
"!. c #189668",
"~. c #179D69",
"^. c #199E68",
"/. c #208760",
"(. c #208C62",
"). c #209760",
"_. c #229A62",
"`. c #1DA266",
"'. c #17A169",
"]. c #19A168",
"[. c #23A363",
"{. c #29A660",
"}. c #2AA960",
"|. c #419F4B",
" X c #44A64F",
".X c #49A549",
"XX c #49AD4D",
"oX c #49A94B",
"OX c #47B14E",
"+X c #4DB34B",
"@X c #4FB94C",
"#X c #51B549",
"$X c #54B948",
"%X c #54B647",
"&X c #41A450",
"*X c #41AE51",
"=X c #43B151",
/* pixels */
"                                                      4.3.    3.4.    4.4.                                                      ",
"                                        ].~.        c.V.E.!.S.V.E.!.^.I.| R / 5.    4.3.5.                                      ",
"                                        ].[.{.    3.x.#XK.`.{.+XK.`.`.S. .&.1.4.  4.d.c.6.3.                                    ",
"                                      [.[.L.C.5.6.5.x.#X#XD.K.#X+XK.D.=X[.H.&X5.6.4.Z. X/.4.4.                                  ",
"                                      =XOX#XH.W.~.~.D.#X#XOXXX+X+XOXH.[.].H.*XW.W.H.H.`.~.P.4.                                  ",
"                                ].].[.K.+X%XOXH.H.H.J.J.+X#X#X#X#XH.[.].K.+XOXH.L.@Xl.X.W.I.4.5.                                ",
"                                `.~.[.J.OX*X*X#X#X#X*XJ.OX#X#X+X+XH.[.[.OX#X#X#X#X=Xh.' Y.I.@...                                ",
"                                ~.^.J.#X#X}.}.+X#X+X#X#X#X+X+X#X+X#XH.{.OX#X+X+XOX}.d./ @.5.X.Q                                 ",
"                          4.4.5.W.H.+X#X+X}.{.#X#X+X#X+X+X#X+X#X#X+X+XOX+X#X#XOX{.`.~.E.6.Y.d.] W.`.`.                          ",
"                          3.3.5.I._.H.+X#X*X*X#X+X#X+X#X#X+X#X+XK.*X#X#X+X#X*XD.K.H.H.H.C.[.R.d.F.H.v.5                         ",
"                          m.x.x.x._.K.+X#X#X+X+X#X+X+X+X+X#X#X=X`.H.#X+X#X#X*XK.+X#X#X%X#XH.D.K.+X$Xk.5                         ",
"                      ].].K.+X#X#X#X#X#X+X#X+X#X#X+X#X+X#X+X%XOX[.H.#X#X+X+X+X#X+X#X+XOX+X+X+X+X#X+X:.5                         ",
"              4.4.4.Y.].].`.K.+X#X#X+X+X+X#X#X#X+X+X#X+X#X+X#XOX[.H.#X+X#X+X+X+X#X#XH.S.OX#X+X#X+XZ.| 6 T T T                   ",
"              | 4.5.P.].].~.[.D.J.XX#X#X#XH.{.J.XX#X+X#X+X#X*X{.'.[.H.+XXXH.H.#X+X#XH.~.{.D.b.-.S._.Y. .Y / ! X                 ",
"              ) ..4.Y.`.].`.~.~.E._.&X+XH.[.^.J.+X#X+XH.+X%XK.].{.`.D.#X#XS.[.H.+X#X*XD.S.`.d.~ Y.'.].Y.Y ^ T %                 ",
"              T ) / 6.E.~.~.~.~.P.3.x.*X_.`.J.#XOX=XH.{.OX%X*X{.=XD.D.+X#XJ.].[.OX+X+X+X+XK.d.Q X.Y.R.X.Y 5 5 2 +               ",
"        R ) ) T 6 6 Y [ W.Y.P.].^.I.4.6.6.F.#X+X[.[.}.OX#X#XOXOX+XD.D.+X+X+XK.[.XXJ.K.#X+X+Xj.' Q X.6.@.Q 6 > o X               ",
"      R R | / Q +.T 6 Q 6.| | P.W.S.C.C.C.XX%X*X[.{.*X#X#X+X#X+XK.K.*X+X+X#XH.`.{.).E.J.+X$XoXj.d.6.X./ ) 6 & X & 2 2 5         ",
"      ) _ X.X.' #.Q ) Q | Y E Y.S.H.=X#X%X%X#XOX[.H.%X+X+X#X#XOX[.H.#X#X#X#X=X{.].I.5.!.V.XX#X+XK.E.X.R R ) 4 % 2 W Q 6         ",
"      R R ..X.Q _ T T ' ] h [ [.*X{.D.+XXXXX#X*X`.H.#X#X#X+X+X*X[.K.+X#X+X+X#XXX[.I.X.4.5.V.+X+XOXS.d.Q R ) Y 5 6 #.d.) 6       ",
"        R ' | X.Q _ ~ <..X.XF.`.`.`.J.XXz.&X&XI.W.H.%X+X#X#X*X[.~.].K.#X+X#X#X=X[.X.R ~ 4.E.K.XXc.W.Y.X.~ ) ) T X.E.d.5 5       ",
"R T _ ) 6 6 Y ~ #.@.@.W.OX$XH.^.^.T./.(.6.z.z.6.K.OX#X#X#X#XH.~.Y.P.m.OXK.*X#X+XH.n.@.../ | 1.c.4.E.Y./ Y 6 Y Q 4.O.W + %       ",
"Y ~ / ) x 5 2 x I.I.I.W.XXOXD.^.].E.6.3.P.6.3.(.XX#X#X+XG.H.J.Y.X.2.m.OXE.H.#X#X#XL._.4.| ) / 3.X.I.#.Y 5 5 6 T ..Q 2 X X       ",
"5 / X.~ Q Y 5 x X.4.4.<.&XS.W.~.~.~.E.6.W.I.I.{.+XXX+XXX#.Y.T.X.~ ..x.&Xz.C.+XOX+X#XC.4.4./ / X.Q ../ 5 5 5 ) ) T 5 & o         ",
"5 / P.E.@.~ Y 6 Q X...~ ).<. .W.I.!.E.5.W.P.c.OX#XZ.Z.oX6.6.X./ X.4.6.6.6.&X*X{.OX#XC.4.5.4.3.4.~ Q T 5 T 6 6 T = X % 4 5 5 5 5 ",
"5 Y ~  ./ Q ~ O.Q ..X.' ..Q &.H.C.G.J.E.W.W._.S.x.6.6.x.E.6.2.X.4.I.E.E.E._._.Y.S.M.z.4.4.I.Q.E.d./ x 6 R Y ~ +.d + + R / | T % ",
"5 5 6 R ~ | z.S.O.6.@./ T T ;.#X#X%X*X].].W.W.~.T.5.4.5.W.E.I.5.I.W.~.!.~.W.I.5.T.5.4.6.I._.K.}.].#.R 6 T [ d.W.O.s 3 Y ! | E . ",
"  5 6 Q X.Y.S. X[.].E.@./ R >.#X#X#XK.~.~.I.I.W.W.I.4.I.W.`.Y.5.W.'.E.5.W.I.5.5.5.4.4.6.~.H.+XOX{.Y./ 5 _ +.W.`.`.O.T 5 o % 1 X ",
"      x Q X.X.%.W.].E.4.4.o.x.#X+XK.E.6.^.I.4.6.5.4.I.W.^.T.4.5.W.].E.5.W.I.I.!.5.6.4.6.W.`.J.+XXX{.@.6 ) ' O.^.^.W.O.2 o X +   ",
"    5 5 6 T s 3 [ #.I.5.Y.M.F.D.D.z./ ~ I. ...4.B._.!.].].@.~ | I.I.I.5.W.!._.K.E.!.I./  .#.E.S.m._.Y./ ' 6 R  . .@.W + X .     ",
"  5 5 5 5 5 & + Q ..o.4.d.F.J.E.~.[ 6 6 / ~ / (.XXH.[.].].@.Q Q 4.X.#.I.~.].K.#XK.`.d.T Y Q @.U.o.Y.R.6.| T 6 T _ 6 4 = = 1     ",
"5 5 6 6 6 6 > % ..~ ~ 4.~ #.Y.4.Y.~ 5 6 R T  .{.+X%XH.`.].Y.X.R X.~ ..].`.~.}.#X+XD.#.T 5 5 T X.Q d.Y.@.@.| ' ) ) = = R R Y 5 5 ",
"+ 4 / X.R T Y 2 6 6 R 6.4.| Q Q ' x x ) R R =.OX+X#XH.].].~.@.6 ) ) ..`.].'.D.+X#XD.#.6 5 5 5 x 6 | @.Q ~ d.O.5 6 5 6 R R R 4 + ",
". + 3 s T 4 s / T *.v.Y.6.X./ T ) x ) ' | ~ ;.#X#XH.[.W.O.#.O.T x Y | I.[ d.K.OXK.K.b.~ 6 x Y T Y Q | X.#.W.Y.~ 6 5 2 = = 1 =   ",
". . . X T = a I.-.|.L.~.Y.5.X.R _ ~ / ..3./ ;.+XL.{.~.I.R / / R x T ~ / 6  .[.H.`.*XG.@.Y T R R R Y R X.Y.!.Y.2.6 5 4 . . .     ",
"o . . + s % g S.OX%XH.W.W.I..._ Q X.3.3.3./ >.XX_.~.E...6 Y R T ) R ) T 6 / I.!.E.H.F.@.Q R R T T x x ~ 2.4.4.X.T T 4 . +       ",
"  X X X o X g W.OX#XC.6.] X.X.Q X.4.3.5.5.3.x..X%.d.d.6 5 Y R _ R ) R R T R ..@./ z.`.E.~ ) R ) x 5 x Q 2.| Q ~ X.T & + d       ",
"        > o 3 %.;.*.] ~ 3 d | I.U.E.I.4.4.3.<.;._ [ ~ Y Y ) ~ X...~ T R R R / 3.Q ~ #.I.Q / X.../ T x Y R 4 % 1 ~ T 2 > 6 =     ",
"        1 o + 6 x 6 6 6 + o g D.D.[.E.5.4.4...T T ~ ~ R R R / 5.5./ _ T ) T / 4.| ) ~ ..Q ..5.4.5.X.T : : + . o 6 x 5 x 5 & +   ",
"      5 + + 2 ) 6 5 5 5 % o j +X=XS.T.3.4.5.X.R ~ X.X.R ) R | 4.4./ R R R ) | 4.4./ ) ' ) ..3.2.3.5.! + X X X + 2 5 Y ) 6 6 5   ",
"      6 Y Y R T 5 5 5 5 5 6 ;.OX}.Y.5.4.~ d.#.~ Y.I.X.T R | 4.4.4./ T R ) / 4.4.5./ / X.Q X.X./ 3.6./ 1 o X + 2 + 4 T R R 6 5   ",
"    W #.@.~ d = 5 d x 5 Y  .z.c.| X.@./ | Z.F.d.I.P.X._ Y | P.E.E.6./ ) ) Q / / 4.X.X.4.Q T Y T 3./ T Y 1 o % 5 + + d T - % %   ",
"  & T d...~ f + 5 _ ) d R d.E./ 2 W ~ s 6.H.H.Y.5.X./ 4 : Q 6.`.}.(...T 5 6 Y ) / 4.P.4.R x > 2 ^ x 6 ) x > > 2 o . % 4 = +     ",
"  . = d 5 Y 4 + Y d ) R Q d.d.Y + d 4 - g.=XC.5.4.~ 4 X o 4  .`.OXx...R 6 5 x ) 6 +.!.4./ x : + o % 6 ) _ 6 5 1 X o X + Y       ",
"  X X + 5 Y f + 4 % 2 R R X...5 5 5 : * |.@XC.4.4.s X X X & [ `.OXx...R T x x ) 6 +.].W.4.T 5 > o . 1 T 6 ) 4 o o : % o z       ",
"    = d Y 4 + X + X a #.X.3.X.Y 4 5 2 4 A.M.1./ Q 5 = & X 3 | `.}.(.| 6 x > 1 6 6 ..!.~.E.@.R 5 o . % Y T 4 % > 1 % & , N       ",
"      ' Q = . X X - { ^.@...Q d x 6 5 Y  ...~ Y 5 5 5 5 % 4 [ `.W.4.Q 5 : o + 5 5 R @.W.~.Y.| 2 o . % 5 Y % o > > o #           ",
"              X X ! Y.f.W 5 % + d 6 5 5 4 6 5 5 5 5 5 5 5 5 ~ W.5.| ) 2 + o % 5 5 5 T @.!.I./ 2 + o % 2 5 + X X X X ; N         ",
"                X } f.W + X o X + o % 6 ) ) h 2 5 5 5 5 2 q ~ W.5.3./ 5 5 2 2 5 5 5 x ~ 4.~ 5 5 2 5 % + o X X X X ; M N N       ",
"                . W ~ = X X + & X o 4 Y ) Y 5 # % 4 T Y ) 6 s 1.| | R 5 Y x 5 5 % 2 6 x T x 5 5 % % + . X X + , , c   N N N     ",
"                3 3 = X X o > 5 & 5 ) ) Y 4 + X . 6 ) ) ) 2 4 Y 6 d 6 6 ) 6 2 & o % : > 2 5 2 & o . X X X X #       N N N N     ",
"                R = + + X , n 5 2 6 ) ) 5 % X X X 4 ) T 5 + # 2 o & 5 5 ) Y 1 . X X o + > 5 & X . X X X o X # N   N N N N       ",
"                  T Y Y     k + o > 6 5 5 % . o X d T 5 + . % 2 o X % 6 T R 4 X X X X X X o o X X X X o k # # N   N N N         ",
"                    ( Z     l ; o o % + % o X . X + 2 2 o . o + X X o % 6 _ d X X X . X X X X X ; + + , N k k N N N N N         ",
"                        N N   c o X X X . . X X X . % 5 + X X X X X X X & 6 6 # X X X X X X . o c < <         N N N N N N       ",
"                      N N N   b O X X o o X X X . . % 2 o . X X X X X X X % 5 1 o X X X X o o + M   N N N N N N N N             ",
"                        N N   M w 0 0 w 0 O . X . . O 0 + . X X X X X X X o o o X X X X X 8 w w N   N N N N N N N N             ",
"                          N   N b q t G G e $ 7 t y u G 0 o . . X X X X X X X . X X X + t G S m N   N N N N N N N N             ",
"                          N   B J S H r.r.U u S I 0.r.0.S 7 O O X X X X X X . . . . . @ F P L     N N N N N N N N N             ",
"                          N   V P I 9.i.p.i.t.8.8.t.s.p.8.y r e @ o X X X X o @ o X X # b   N N N N N N N N       N             ",
"                          N N B V V C A K P r.p.p.p.s.s.p.9.U H e o X X X . 9 p @ ; c c N   N N N N N N   N       N             ",
"                            N       N v   e.y.q.q.q.q.q.q.L L J m n < < < < n J q c     N N N N N N N                           ",
"                                          w.q.                                      N       N                                   ",
"                                          N N N N N N N N N N N N N N N N N N N N N N       N         N                         "
};
